<?xml version="1.0" encoding="UTF-8" standalone="no"?>
<!-- Created with Inkscape (http://www.inkscape.org/) -->

<svg
   width="3200"
   height="3200"
   viewBox="0 0 846.66657 846.66657"
   version="1.1"
   id="svg1"
   xml:space="preserve"
   inkscape:version="1.4 (e7c3feb100, 2024-10-09)"
   sodipodi:docname="leisure_are.svg"
   xmlns:inkscape="http://www.inkscape.org/namespaces/inkscape"
   xmlns:sodipodi="http://sodipodi.sourceforge.net/DTD/sodipodi-0.dtd"
   xmlns="http://www.w3.org/2000/svg"
   xmlns:svg="http://www.w3.org/2000/svg"><sodipodi:namedview
     id="namedview1"
     pagecolor="#ffffff"
     bordercolor="#000000"
     borderopacity="0.25"
     inkscape:showpageshadow="2"
     inkscape:pageopacity="0.0"
     inkscape:pagecheckerboard="0"
     inkscape:deskcolor="#d1d1d1"
     inkscape:document-units="mm"
     inkscape:zoom="0.114017"
     inkscape:cx="114.01808"
     inkscape:cy="3745.0555"
     inkscape:window-width="3072"
     inkscape:window-height="1659"
     inkscape:window-x="0"
     inkscape:window-y="0"
     inkscape:window-maximized="1"
     inkscape:current-layer="layer1" /><defs
     id="defs1" /><g
     inkscape:label="Laag 1"
     inkscape:groupmode="layer"
     id="layer1"><g
       id="g1"><rect
         style="fill:#ffffff;stroke:#000000;stroke-width:16.8555;stroke-dasharray:none;paint-order:fill markers stroke"
         id="rect1"
         width="829.8111"
         height="829.8111"
         x="8.4277849"
         y="8.4277849"
         rx="52.916664"
         ry="52.916664" /><path
         style="fill:#000000"
         d="m 255.1757,710.40346 c 0.1362,-11.10809 0.3977,-35.27778 0.5811,-53.71042 0.3358,-33.75036 0.9011,-86.24073 1.1892,-110.41945 0.085,-7.17903 0.252,-17.69621 0.37,-23.37153 0.183,-8.79995 0.1406,-10.31875 -0.2885,-10.31875 -0.2767,0 -1.516,0.33519 -2.7539,0.74486 -9.3653,3.09919 -19.9811,3.56894 -29.5909,1.3094 -3.1543,-0.74167 -6.6311,-1.84884 -8.1141,-2.58392 -8.6792,-4.30191 -9.6837,-4.96395 -14.6403,-9.64891 -3.0572,-2.88966 -6.8792,-7.59819 -6.8792,-8.47497 0,-0.18571 -0.1319,-0.39058 -0.293,-0.45525 -0.1612,-0.0647 -0.9722,-1.50151 -1.8022,-3.19296 -0.83,-1.69145 -1.6903,-3.21221 -1.9118,-3.37946 -0.2215,-0.16725 -1.0377,-0.33141 -1.8138,-0.3648 -3.0871,-0.1328 -8.8395,-1.17366 -13.0528,-2.36181 -3.5285,-0.99502 -6.1993,-2.03507 -10.7597,-4.18997 -2.7384,-1.29394 -7.7302,-4.20378 -9.0562,-5.27907 -0.3548,-0.28778 -1.8358,-1.47232 -3.291,-2.6323 -4.1335,-3.29492 -9.1775,-8.73323 -11.9988,-12.93667 -0.6511,-0.97014 -1.2808,-1.84327 -1.3993,-1.94028 -1.0438,-0.85435 -5.3335,-9.05541 -6.4632,-12.35617 -0.2971,-0.8682 -0.842,-2.29293 -1.2109,-3.16605 -0.3689,-0.87313 -0.8768,-2.54 -1.1287,-3.70417 -0.2519,-1.16417 -0.587,-2.59292 -0.7446,-3.175 -0.2689,-0.99269 -0.6266,-3.19688 -1.4027,-8.64306 -0.9386,-6.58614 -1.2083,-21.82494 -0.4434,-25.04722 0.6066,-2.55497 1.874,-6.7921 2.3743,-7.9375 0.2543,-0.58208 0.6743,-1.61124 0.9333,-2.28702 1.1896,-3.10359 6.6693,-12.22453 8.5188,-14.17959 0.2429,-0.2567 0.9089,-1.10172 1.4801,-1.87783 1.3313,-1.80897 1.8004,-2.36301 4.209,-4.97079 1.0914,-1.18171 1.9813,-2.29296 1.9775,-2.46944 0,-0.17649 -1.0556,-1.43213 -2.3374,-2.79033 -1.2818,-1.35819 -3.0592,-3.50132 -3.9498,-4.7625 -0.8907,-1.26118 -1.7041,-2.37243 -1.8078,-2.46944 -0.9578,-0.89674 -3.2827,-5.01605 -6.3635,-11.27526 -1.7544,-3.56425 -4.2318,-10.70877 -4.2318,-12.20386 0,-0.4515 -0.1383,-0.90634 -0.3072,-1.01076 -0.169,-0.10442 -0.4162,-1.0266 -0.5493,-2.0493 -0.1332,-1.02269 -0.3958,-2.81194 -0.5836,-3.9761 -0.9652,-5.98417 -0.757,-17.22546 0.4313,-23.28334 0.6189,-3.15551 2.5041,-10.22185 2.8188,-10.56569 0.1686,-0.18433 0.3066,-0.59011 0.3066,-0.90173 0,-1.47738 7.6119,-16.88036 8.5124,-17.22517 0.1689,-0.0647 0.3071,-0.27484 0.3071,-0.46703 0,-1.2682 10.8901,-15.08169 11.9234,-15.12416 0.1361,-0.006 1.0755,-0.78811 2.0876,-1.73893 3.2341,-3.03846 15.2982,-11.65645 16.3175,-11.65645 0.7769,0 0.2686,-0.71984 -2.1529,-3.04847 -3.5679,-3.43099 -8.8621,-10.66344 -9.712,-13.26751 -0.1108,-0.33955 -0.3417,-0.61736 -0.5131,-0.61736 -0.1714,0 -0.3116,-0.28575 -0.3116,-0.635 0,-0.34925 -0.1388,-0.78581 -0.3085,-0.97014 -0.1696,-0.18432 -0.8111,-1.68451 -1.4255,-3.33375 -0.6144,-1.64923 -1.2513,-3.31611 -1.4152,-3.70416 -0.6421,-1.51955 -1.4258,-4.98204 -2.125,-9.38929 -0.5486,-3.45774 -0.4479,-12.0015 0.1803,-15.30516 0.2952,-1.55222 0.6306,-3.50055 0.7454,-4.32963 0.1148,-0.82907 0.3464,-1.5925 0.5147,-1.69651 0.1683,-0.10401 0.306,-0.4879 0.306,-0.85308 0,-1.83025 6.038,-14.4953 7.4001,-15.52217 0.1287,-0.097 0.9293,-1.12889 1.7792,-2.29305 2.8699,-3.9312 8.7554,-9.23405 13.5749,-12.23086 8.8683,-5.5145 17.5374,-7.97005 28.575,-8.09396 8.0032,-0.0898 16.1514,1.80347 22.5443,5.2384 0.9507,0.51086 1.0591,0.50376 1.4993,-0.0982 0.2609,-0.35687 0.4744,-1.01755 0.4744,-1.46816 0,-0.45062 0.1464,-1.09497 0.3254,-1.43188 0.5771,-1.08635 2.5007,-6.24278 2.4987,-6.69799 -0.001,-0.24254 0.1181,-0.44098 0.2648,-0.44098 0.1467,0 0.4911,-0.51593 0.7654,-1.14652 2.2616,-5.19963 8.5745,-12.6308 14.6208,-17.21059 3.8331,-2.90348 11.2607,-7.04289 12.6374,-7.04289 0.273,0 0.6472,-0.13927 0.8316,-0.3095 0.6527,-0.6028 4.6259,-1.88271 8.9781,-2.89216 3.7858,-0.87806 5.1374,-1.02342 9.5518,-1.02723 9.3671,-0.008 16.5937,1.34668 22.9038,4.29378 5.1905,2.42422 5.9253,2.84288 8.2903,4.72389 11.3908,9.05968 17.2161,17.41389 20.6447,29.60706 0.2911,1.03528 0.9318,5.14549 1.1798,7.56815 0.1211,1.18358 0.7819,1.82889 1.235,1.2061 0.3954,-0.5434 5.1839,-3.05655 8.3377,-4.37585 1.2234,-0.51176 4.8752,-1.65731 6.5264,-2.04726 0.8731,-0.20621 2.4606,-0.58144 3.5278,-0.83386 2.9353,-0.69431 15.2987,-0.58114 18.6972,0.17114 3.7336,0.82648 6.7597,1.61876 7.5847,1.98583 0.3881,0.17265 1.6581,0.67896 2.8222,1.12512 2.3818,0.91282 6.1523,2.82346 7.7432,3.9237 4.0013,2.76731 8.3215,6.39133 11.004,9.23073 3.337,3.53216 7.5662,8.88034 8.9394,11.30443 0.3916,0.69138 1.0507,1.85236 1.4645,2.57996 2.7229,4.78709 4.1168,8.5984 5.5158,15.08125 0.8067,3.73852 0.9118,5.01679 0.8994,10.93611 -0.012,5.49105 -0.1536,7.37243 -0.7858,10.40695 -1.8188,8.7308 -5.0819,15.74345 -10.9546,23.54273 l -1.1251,1.49411 2.408,1.09508 c 10.3238,4.69499 16.1964,8.51316 22.3399,14.52468 2.2313,2.18338 4.3213,4.31315 4.6445,4.73282 1.3902,1.80521 4.8805,7.17866 4.8805,7.51372 0,0.20147 0.1587,0.36631 0.3527,0.36631 0.1941,0 0.3528,0.14623 0.3528,0.32495 0,0.17873 0.7545,1.64716 1.6766,3.2632 2.0841,3.65224 2.1181,3.72667 5.0502,11.05212 1.4684,3.66855 3.3332,10.93475 3.8909,15.16147 0.723,5.47917 0.8002,14.70235 0.1649,19.71269 -0.6817,5.37692 -2.0329,11.18337 -3.3775,14.51473 -0.1566,0.38806 -0.6806,1.73989 -1.1645,3.00408 -1.3184,3.44457 -2.6758,6.20863 -4.5741,9.31421 -3.4793,5.69187 -4.5641,7.14241 -9.9171,13.26006 -0.4253,0.48614 -0.8886,1.0703 -1.0294,1.29813 -0.2278,0.36853 1.9835,3.96724 3.6448,5.93186 0.8446,0.99867 3.2221,5.6083 4.185,8.11389 0.4474,1.16416 0.9463,2.43416 1.1087,2.82222 1.2309,2.94174 2.66,8.70141 3.5421,14.27595 0.5518,3.48755 0.5521,17.52672 3e-4,20.67457 -1.1988,6.83969 -1.9253,9.61529 -3.918,14.96754 -0.614,1.64923 -1.2087,3.31611 -1.3216,3.70416 -0.2048,0.70432 -2.1006,4.42662 -3.5698,7.00912 -3.2389,5.69332 -9.4376,13.14651 -13.4415,16.16175 -1.2929,0.97362 -7.6739,4.52219 -8.1318,4.52219 -0.1456,0 -1.6072,0.62597 -3.2478,1.39105 -3.3284,1.55215 -9.118,3.54784 -10.2924,3.54784 -0.4206,0 -0.9155,0.14336 -1.0998,0.31857 -0.1843,0.17522 -1.0495,0.39894 -1.9226,0.49717 -0.8732,0.0982 -2.8575,0.36011 -4.4098,0.58197 -1.5522,0.22186 -5.5715,0.35532 -8.9318,0.29658 l -6.1096,-0.10679 -0.9709,2.82222 c -2.5649,7.45558 -9.3555,16.33874 -16.6338,21.75956 -3.7212,2.77147 -9.9502,5.93838 -14.9789,7.61539 -4.5296,1.51059 -11.209,2.5485 -16.4134,2.55045 -3.7149,0.001 -9.9857,-0.82695 -13.7068,-1.81058 -0.4055,-0.1072 -0.4747,1.28461 -0.4139,8.3272 0.04,4.65075 0.1443,8.57144 0.2316,8.71264 0.087,0.1412 0.3212,5.86104 0.5198,12.71076 0.3504,12.08351 0.6221,20.54331 1.3804,42.9693 0.2001,5.91785 0.5123,15.44285 0.6938,21.16667 0.1815,5.72382 0.4177,12.62945 0.5249,15.34584 0.1072,2.71638 0.2797,7.55826 0.3833,10.75972 0.1035,3.20146 0.3423,10.58333 0.5306,16.40417 0.1883,5.82083 0.4975,15.26645 0.6872,20.99027 0.1896,5.72382 0.5099,15.40757 0.7117,21.51945 0.2018,6.11187 0.5197,15.71625 0.7064,21.34305 0.1867,5.62681 0.4439,13.68337 0.5716,17.90348 l 0.2321,7.67291 h -32.9045 -32.9044 z m 122.2595,19.95922 c -7.3166,-0.74694 -12.7,-7.15551 -12.7,-15.11862 0,-3.03247 0.7571,-5.28698 3.6098,-10.74963 3.2352,-6.19507 4.8822,-9.2642 5.206,-9.70139 0.2477,-0.33447 1.4629,-2.61353 5.9252,-11.1125 1.0696,-2.03729 2.2386,-4.12555 2.5977,-4.64057 0.3592,-0.51502 0.653,-1.18971 0.653,-1.49931 0,-0.30959 0.1191,-0.56414 0.2646,-0.56565 0.1455,-0.002 0.4316,-0.3587 0.6357,-0.79375 0.5054,-1.07695 4.4745,-8.58209 5.4586,-10.32152 0.4374,-0.77307 1.4322,-2.59622 2.2107,-4.05142 2.4472,-4.57424 5.7573,-10.69645 6.6759,-12.34723 0.4859,-0.87312 1.8053,-3.33375 2.932,-5.46805 2.8026,-5.3087 3.8088,-7.18091 4.6951,-8.7358 0.4161,-0.73011 1.6535,-3.03199 2.7498,-5.11528 1.0962,-2.0833 2.3678,-4.4625 2.8257,-5.28712 1.8798,-3.38554 2.5632,-4.63721 4.0931,-7.49653 0.8824,-1.64923 2.3997,-4.52455 3.3718,-6.38959 0.9722,-1.86504 1.981,-3.7374 2.2419,-4.16079 0.7922,-1.28575 6.7879,-5.91726 7.9023,-6.10432 1.367,-0.22946 8.2499,-2.02166 9.1525,-2.3832 0.6858,-0.27468 10.4018,-2.72435 12.1709,-3.06862 0.485,-0.0944 1.1994,-0.30646 1.5875,-0.47125 0.388,-0.1648 1.1024,-0.37726 1.5875,-0.47214 0.9068,-0.17739 5.788,-1.44044 13.2291,-3.42317 2.3284,-0.6204 4.789,-1.24819 5.4681,-1.3951 2.5693,-0.55579 9.0246,-2.22454 9.7014,-2.50789 0.388,-0.16246 2.36,-0.71423 4.3821,-1.22615 4.4572,-1.1284 6.8338,-0.98761 10.1717,0.60256 2.017,0.96093 2.5482,1.48137 6.1847,6.05947 5.4786,6.89709 7.0812,8.93082 8.8116,11.18186 1.652,2.14913 6.5246,8.34299 7.2156,9.17222 0.2425,0.29105 1.7335,2.19605 3.3132,4.23334 1.5798,2.03729 3.2889,4.19744 3.7981,4.80034 1.3252,1.5691 1.7374,2.09966 4.0818,5.25382 1.1537,1.55223 2.6997,3.5366 3.4354,4.40973 0.7358,0.87312 2.4112,2.96832 3.7231,4.65599 4.0338,5.18889 6.4739,8.29561 10.1597,12.9353 1.9475,2.45152 4.2485,5.40982 5.1133,6.57398 0.8648,1.16417 1.6526,2.19605 1.7507,2.29306 0.098,0.097 0.7844,0.93045 1.525,1.85208 0.7406,0.92164 1.5448,1.6757 1.7871,1.6757 0.2424,0 0.9179,-0.53906 1.5012,-1.1979 1.0657,-1.2037 6.8834,-7.63437 9.2887,-10.26738 0.709,-0.77611 2.8433,-3.15736 4.7429,-5.29167 1.8996,-2.1343 4.8857,-5.43075 6.6357,-7.32544 1.7501,-1.89469 3.6525,-4.03781 4.2276,-4.7625 0.5751,-0.72469 1.3099,-1.56808 1.6329,-1.87421 0.47,-0.44538 2.9286,-3.1409 6.2318,-6.83202 0.194,-0.21682 1.1465,-1.26431 2.1166,-2.32776 0.9702,-1.06345 2.7164,-3.03556 3.8806,-4.38246 4.1633,-4.81675 11.1046,-12.18311 11.4802,-12.18311 0.1367,0 1.4611,-0.72885 2.9432,-1.61967 3.3056,-1.98683 7.3332,-3.0887 11.3294,-3.09948 3.2881,-0.009 12.6809,1.04033 13.8631,1.54857 0.4457,0.1916 1.0515,0.34836 1.3462,0.34836 1.8968,0 10.2229,5.34337 11.7658,7.55084 0.2843,0.40669 0.8108,1.05694 1.1702,1.44499 0.7984,0.86229 3.4627,4.87878 4.2517,6.40946 0.3168,0.61479 0.9067,2.04354 1.3107,3.175 0.6617,1.85305 1.308,3.56286 2.1111,5.58499 0.1541,0.38805 0.7148,1.97555 1.2459,3.52778 0.5312,1.55222 1.1642,3.29847 1.4068,3.88055 0.4941,1.18553 1.6393,4.28063 3.5243,9.525 2.4827,6.90734 4.0873,11.29905 4.3823,11.99445 0.4781,1.12692 1.4814,3.8024 1.786,4.7625 0.1539,0.48507 0.7807,2.23132 1.3929,3.88055 0.6122,1.64924 1.3488,3.71299 1.6368,4.58611 0.288,0.87313 0.6744,1.94469 0.8587,2.38125 0.1842,0.43657 0.474,1.15094 0.6438,1.5875 0.1699,0.43657 0.506,1.27 0.7469,1.85209 0.2409,0.58208 0.9875,2.64583 1.6592,4.58611 0.6717,1.94028 2.0665,5.82965 3.0996,8.64305 1.0332,2.81341 1.9793,5.45813 2.1026,5.87717 0.1232,0.41905 0.4612,0.95871 0.7511,1.19927 0.5388,0.44714 8.5489,1.13439 30.6665,2.6311 1.7462,0.11817 3.5338,0.28761 3.9723,0.37654 l 0.7972,0.16169 -0.092,16.30837 -0.092,16.30837 -105.3194,0.0888 -105.3194,0.0888 -1.3959,-1.84023 c -0.7677,-1.01212 -2.8246,-3.6856 -4.5708,-5.94106 -1.7463,-2.25546 -3.5255,-4.56294 -3.9538,-5.12772 -0.4283,-0.56478 -1.7517,-2.29688 -2.9409,-3.8491 -1.1892,-1.55222 -3.532,-4.64785 -5.2063,-6.87917 -1.6742,-2.23132 -3.1484,-4.13632 -3.2759,-4.23333 -0.1275,-0.097 -1.6513,-2.08139 -3.3863,-4.40972 -1.735,-2.32834 -3.3824,-4.47283 -3.6609,-4.76555 -0.2786,-0.29271 -2.1699,-2.75334 -4.2029,-5.46805 -2.033,-2.71472 -4.3348,-5.74155 -5.1152,-6.72629 -0.7804,-0.98475 -1.763,-2.25475 -2.1836,-2.82223 -0.4205,-0.56747 -1.4958,-1.98427 -2.3895,-3.14844 -0.8936,-1.16417 -2.8514,-3.7587 -4.3506,-5.76563 -1.4992,-2.00693 -3.0197,-3.9913 -3.3789,-4.40972 -0.5388,-0.62752 -6.2023,-8.00812 -9.7538,-12.71103 -4.2984,-5.69172 -5.7741,-7.45251 -6.2459,-7.45251 -0.3023,0 -0.8186,0.50166 -1.1474,1.11479 -0.3289,0.61313 -0.8607,1.51582 -1.1818,2.00596 -0.3212,0.49015 -0.9044,1.45693 -1.2961,2.14841 -0.3917,0.69148 -1.0151,1.79172 -1.3853,2.44498 -0.3703,0.65326 -1.3471,2.28045 -2.1707,3.61597 -0.8237,1.33552 -2.0815,3.4601 -2.7952,4.72128 -2.1429,3.78703 -5.6567,9.75464 -11.7362,19.93195 -1.159,1.94027 -2.3847,4.00402 -2.7237,4.58611 -0.339,0.58208 -1.1148,1.89875 -1.724,2.92594 -0.6092,1.02718 -1.1076,1.95108 -1.1076,2.0531 0,0.10203 -0.4763,0.87771 -1.0584,1.72373 -0.5821,0.84603 -1.0583,1.63978 -1.0583,1.76389 0,0.12411 -0.4763,0.91786 -1.0583,1.76389 -0.5821,0.84603 -1.0584,1.68863 -1.0584,1.87245 0,0.18382 -0.2449,0.53749 -0.5443,0.78594 -0.2993,0.24845 -0.4978,0.68548 -0.4409,0.97117 0.09,0.45059 2.638,0.51192 19.2254,0.46267 10.5172,-0.0312 19.528,0.0451 20.0239,0.16955 l 0.9018,0.22632 -0.092,15.04206 -0.092,15.04207 -35.807,0.0326 c -19.6938,0.0179 -36.3625,-0.0241 -37.0416,-0.0935 z m 265.8352,-35.97454 c -0.1443,-0.35939 -0.6575,-1.92343 -1.1403,-3.47566 -0.4829,-1.55222 -1.1617,-3.69534 -1.5086,-4.7625 -0.3468,-1.06715 -1.1521,-3.60715 -1.7894,-5.64444 -0.6374,-2.03729 -1.2797,-4.02167 -1.4274,-4.40972 -0.1476,-0.38806 -1.0864,-3.32493 -2.0861,-6.52639 -0.9997,-3.20146 -1.9668,-6.29709 -2.1491,-6.87917 -0.1823,-0.58208 -1.1367,-3.51896 -2.1209,-6.52639 -0.9842,-3.00743 -2.5491,-7.92178 -3.4776,-10.92078 -0.9285,-2.999 -1.828,-5.48987 -1.9988,-5.53527 -0.1708,-0.0454 -1.1837,1.12049 -2.2508,2.59088 -1.0672,1.47038 -2.4166,3.26802 -2.9987,3.99473 -0.582,0.72672 -1.3758,1.76319 -1.7638,2.30326 -0.3881,0.54007 -1.42,1.88278 -2.2931,2.98379 -0.8731,1.10102 -1.9302,2.46363 -2.3489,3.02804 -1.416,1.9082 -5.568,7.37257 -6.0069,7.90535 -0.2397,0.29104 -2.1124,2.75167 -4.1615,5.46806 -6.276,8.3196 -10.5794,13.9861 -12.7261,16.75694 -1.1275,1.45521 -2.8146,3.63347 -3.7491,4.84058 -0.9345,1.20711 -1.6992,2.33613 -1.6992,2.50892 0,0.40257 3.3989,0.74771 9.4786,0.9625 9.4407,0.33353 32.0433,1.28031 36.0298,1.50921 2.2313,0.12813 5.9454,0.28888 8.2536,0.35723 3.9699,0.11755 4.1826,0.0889 3.9343,-0.52917 z M 437.0547,585.56859 c -8.2927,-1.43276 -13.0884,-3.14675 -19.05,-6.80857 -5.2624,-3.23233 -12.3556,-10.23737 -14.6738,-14.49142 -0.2125,-0.38989 -0.8119,-1.46107 -1.3319,-2.3804 -0.5201,-0.91932 -1.4037,-2.82432 -1.9636,-4.23333 -0.9021,-2.27043 -1.3384,-3.82893 -2.4693,-8.82156 -0.771,-3.40334 -0.4004,-11.83302 0.725,-16.49444 2.3591,-9.77115 7.5854,-17.8161 15.1608,-23.33738 5.8595,-4.27064 9.6643,-6.10368 16.2498,-7.8287 5.8584,-1.53457 15.4076,-2.14405 19.7615,-1.26129 5.0664,1.02721 12.3086,3.3519 12.9915,4.17018 0.097,0.11624 1.0495,0.66948 2.1167,1.22942 2.2546,1.18299 6.3624,4.20779 8.3323,6.13557 6.8503,6.70356 10.8341,14.32576 12.4744,23.86741 0.5503,3.20085 0.4471,11.95015 -0.1763,14.938 -1.0184,4.88166 -4.2613,13.13123 -5.1619,13.13123 -0.1645,0 -0.2991,0.22001 -0.2991,0.48891 0,0.71987 -3.8416,5.96882 -5.9747,8.16354 -6.2319,6.41182 -13.6848,10.78061 -21.542,12.62767 -1.2612,0.29648 -2.9358,0.62713 -3.7213,0.73478 -2.8934,0.39651 -9.5646,0.49579 -11.4481,0.17038 z"
         id="path1"
         sodipodi:nodetypes="sscsssssssssssssssssssssssssssscsscsssssssssscsssssssscssssssssssssssssssssssssssssssssssscscsscssssssssssssssssssssssssssssssscssscssssssssssssscccscsssssscssssssssssssssssssssssssssssssssssssssssssssssssssssssssssssssssssssscccccsssssssssssssssssssssssssssssssssscccsccsssssssssssssscssssssssssssssssssssssssssssss" /></g></g></svg>
