<?xml version="1.0" encoding="UTF-8" standalone="no"?>
<!-- Created with Inkscape (http://www.inkscape.org/) -->

<svg
   version="1.1"
   id="svg1"
   width="3200"
   height="3200"
   viewBox="0 0 3200 3200"
   sodipodi:docname="mill.svg"
   inkscape:version="1.4 (e7c3feb100, 2024-10-09)"
   xmlns:inkscape="http://www.inkscape.org/namespaces/inkscape"
   xmlns:sodipodi="http://sodipodi.sourceforge.net/DTD/sodipodi-0.dtd"
   xmlns="http://www.w3.org/2000/svg"
   xmlns:svg="http://www.w3.org/2000/svg">
  <defs
     id="defs1" />
  <sodipodi:namedview
     id="namedview1"
     pagecolor="#ffffff"
     bordercolor="#000000"
     borderopacity="0.25"
     inkscape:showpageshadow="2"
     inkscape:pageopacity="0.0"
     inkscape:pagecheckerboard="0"
     inkscape:deskcolor="#d1d1d1"
     showgrid="false"
     inkscape:zoom="0.22625"
     inkscape:cx="-212.1547"
     inkscape:cy="2886.1878"
     inkscape:window-width="3072"
     inkscape:window-height="1659"
     inkscape:window-x="0"
     inkscape:window-y="0"
     inkscape:window-maximized="1"
     inkscape:current-layer="g1" />
  <g
     inkscape:groupmode="layer"
     inkscape:label="Image"
     id="g1">
    <g
       id="g2">
      <rect
         style="fill:#ffffff;stroke:#000000;stroke-width:63.7058;stroke-dasharray:none;paint-order:fill markers stroke"
         id="rect1"
         width="3136.2939"
         height="3136.2939"
         x="31.853027"
         y="31.853027"
         rx="200"
         ry="200" />
      <path
         style="fill:#000000"
         d="m 1947.3317,2778.9898 c -110.3667,-0.5209 -370.1197,-1.3228 -577.2288,-1.7819 -207.1092,-0.4592 -376.77956,-1.0522 -377.04526,-1.318 -0.2658,-0.2657 0.1144,-3.1498 0.8449,-6.4092 1.6287,-7.2678 5.3888,-27.3987 6.80386,-36.4278 1.2327,-7.8643 3.2487,-19.5341 5.2979,-30.6666 1.9392,-10.5347 3.7002,-20.8369 5.242,-30.6667 0.6901,-4.4 2.4864,-14.9 3.9916,-23.3333 1.5052,-8.4334 3.5848,-20.1334 4.6211,-26 2.6259,-14.8644 3.4013,-19.1153 4.7424,-26 0.6428,-3.3 1.7889,-9.6 2.5469,-14 0.7579,-4.4 2.2718,-13.1 3.364,-19.3334 5.5646,-31.7568 9.0798,-51.9985 10.0725,-58 4.513,-27.2851 14.2306,-80.7851 16.048,-88.3524 0.751,-3.1272 1.3655,-7.1686 1.3655,-8.9809 0,-1.8123 0.5942,-5.8537 1.3204,-8.9809 1.1304,-4.868 3.4909,-18.232 10.8955,-61.6858 0.7498,-4.4 1.8793,-10.1 2.51,-12.6666 0.6308,-2.5667 2.1307,-11.2667 3.3333,-19.3334 2.0056,-13.454 3.757,-23.4699 7.2277,-41.3333 0.7124,-3.6667 1.9547,-10.8667 2.7607,-16 0.806,-5.1333 2.0255,-12.0333 2.71,-15.3333 1.4134,-6.8144 6.1935,-34.5079 9.0906,-52.6667 1.5315,-9.5987 9.3228,-53.5439 10.9925,-62 0.6516,-3.3 1.7382,-9.3 2.4147,-13.3333 0.6764,-4.0334 2.1955,-12.7334 3.3757,-19.3334 4.478,-25.0418 6.4065,-36.234 7.4667,-43.3333 0.6023,-4.0333 1.6843,-10.6333 2.4043,-14.6667 2.8196,-15.7937 5.5915,-31.1795 7.6267,-42.3333 1.1708,-6.4167 2.4483,-14.5292 2.839,-18.0278 0.3906,-3.4986 1.2326,-6.684 1.8712,-7.0787 0.6386,-0.3946 1.161,-2.9361 1.161,-5.6477 0,-2.7115 0.6119,-7.0261 1.3598,-9.5879 0.7479,-2.5619 2.2306,-10.6579 3.2949,-17.9912 1.0643,-7.3334 2.7793,-17.6653 3.811,-22.96 2.2501,-11.5469 1.6213,-11.5092 -9.799,0.5872 -15.0141,15.903 -65.2791,68.2681 -82.8767,86.3393 -10.0155,10.2851 -21.6291,22.3001 -25.8079,26.7001 -12.9744,13.661 -59.43536,61.8716 -70.64866,73.3092 -5.8667,5.9839 -16.3667,16.8632 -23.3334,24.1762 -19.4648,20.4324 -73.4582,76.4472 -91.3333,94.7526 -8.8,9.0118 -21.7,22.647 -28.6667,30.3004 -6.9666,7.6534 -13.3187,13.9632 -14.1156,14.0218 -0.797,0.059 -6.7118,-5.4435 -13.1442,-12.2268 -10.7949,-11.384 -64.9883,-67.4164 -86.7402,-89.6837 -5.1333,-5.2549 -16.7196,-17.2348 -25.7474,-26.6219 l -16.414,-17.0675 4.414,-4.7071 c 2.4278,-2.5888 8.7989,-9.2549 14.1581,-14.8134 5.3592,-5.5585 11.6283,-12.2064 13.9312,-14.7731 2.303,-2.5667 10.1907,-10.9667 17.5283,-18.6667 7.3376,-7.7 18.1685,-19.1192 24.0688,-25.376 5.9002,-6.2569 16.967,-17.9569 24.5929,-26 7.6258,-8.0432 18.0815,-19.124 23.2349,-24.624 5.1534,-5.5 14.5141,-15.4217 20.8015,-22.0484 6.2875,-6.6266 16.7671,-17.7266 23.288,-24.6666 6.521,-6.9401 16.4484,-17.4183 22.0609,-23.285 5.6125,-5.8666 15.5278,-16.3666 22.0341,-23.3333 6.5063,-6.9667 16.7093,-17.7667 22.6733,-24 5.9641,-6.2333 16.479,-17.3333 23.3665,-24.6667 6.8875,-7.3333 17.3571,-18.4568 23.2658,-24.7188 21.1886,-22.4556 46.7678,-49.7083 48.0765,-51.2221 0.7333,-0.8482 7.0333,-7.5189 14,-14.8238 39.06986,-40.9666 90.97206,-95.8809 101.19706,-107.07 5.5014,-6.0201 42.8126,-45.4403 57.5585,-60.8118 7.7489,-8.0777 18.5489,-19.4792 24,-25.3365 5.451,-5.8574 13.4301,-14.2574 17.7312,-18.6667 15.4605,-15.8496 19.0624,-20.8595 20.1426,-28.0169 0.5534,-3.6667 1.5147,-9.3667 2.1362,-12.6667 1.7225,-9.1456 3.5535,-19.7456 5.067,-29.3333 1.2976,-8.2203 2.3151,-13.9889 5.5858,-31.6667 0.7802,-4.2167 1.9095,-10.9667 2.5097,-15 0.6002,-4.0333 2.4169,-14.5333 4.0371,-23.3333 3.1853,-17.3001 4.921,-27.4385 6.2204,-36.3334 l 0.8278,-5.6666 -23.1734,-0.054 c -30.1883,-0.07 -86.7619,-1.2792 -88.6386,-1.8943 -3.7563,-1.2313 -5.3022,-83.4777 -2.031,-108.0519 0.9762,-7.3334 2.0737,-15.7334 2.4388,-18.6667 0.3652,-2.9333 1.2024,-5.9033 1.8607,-6.6 0.6582,-0.6967 1.1967,-2.3605 1.1967,-3.6975 0,-5.8738 13.3021,-46.29 20.9662,-63.7025 1.1297,-2.5667 3.094,-7.0667 4.3652,-10 1.2711,-2.9333 3.8916,-8.7997 5.8232,-13.0364 1.9317,-4.2368 3.5121,-8.0484 3.5121,-8.4704 0,-0.6722 -80.2193,-80.2384 -98,-97.2021 -3.6667,-3.4981 -36.6667,-35.92673 -73.3333,-72.06333 -36.66666,-36.1365 -76.06536,-74.8959 -87.55276,-86.1319 -24.4873,-23.9516 -135.8538,-133.4439 -195.1085,-191.8251 -22.7363,-22.4012 -52.2846,-51.5012 -65.6628,-64.6667 -13.3783,-13.1655 -24.3283,-24.3049 -24.3334,-24.7543 0,-0.4494 3.7408,-4.7046 8.3241,-9.4561 4.5834,-4.7515 21.8334,-22.6354 38.3334,-39.742 16.5,-17.1067 35.4,-36.5597 42,-43.229 6.6,-6.6693 22.4701,-23.0677 35.267,-36.4409 12.7968,-13.3732 23.9047,-24.315 24.6841,-24.315 1.4258,0 7.7331,5.9523 49.3822,46.6027 30.1817,29.4579 103.845,100.8216 124.6586,120.767 9.1622,8.78 20.5622,19.8764 25.3333,24.6587 4.7711,4.7823 18.904,18.5823 31.40626,30.6667 21.308,20.5955 91.8741,89.0413 108.5672,105.3049 4.1399,4.0334 23.6456,22.9334 43.3462,42 19.7005,19.0667 40.0986,38.8667 45.3291,44 5.2305,5.1334 25.3574,24.6334 44.7265,43.3334 19.3691,18.7 39.8952,38.781 45.6135,44.6245 l 10.397,10.6246 4.5828,-2.4679 c 2.5205,-1.3574 5.7854,-3.5885 7.2553,-4.9579 1.47,-1.3695 2.9775,-2.49 3.3501,-2.49 0.8014,0 16.7133,-10.0036 19.0445,-11.9729 0.8857,-0.7482 1.8917,-1.3604 2.2355,-1.3604 0.3437,0 5.5131,-3 11.4874,-6.6667 5.9744,-3.6667 11.4184,-6.6667 12.0979,-6.6667 0.6795,0 1.2401,-0.45 1.2459,-1 0.01,-0.55 1.3557,-1.6679 3,-2.4842 1.6442,-0.8164 9.5896,-4.7901 17.6562,-8.8305 13.9818,-7.0031 27.5657,-13.3979 33.3334,-15.6921 1.4666,-0.5834 5.5101,-2.3205 8.9854,-3.8603 3.4754,-1.5397 7.19,-2.7995 8.2547,-2.7995 1.0647,0 2.2624,-0.5284 2.6615,-1.1742 0.3991,-0.6457 2.0845,-1.4884 3.7453,-1.8726 1.6609,-0.3842 9.3197,-2.566 17.0197,-4.8485 24.9946,-7.4092 56.6447,-14.6548 76.6667,-17.5514 50.0334,-7.2381 101.1575,-6.3285 147.3333,2.6216 22.0172,4.2674 72.6897,20.1935 85.0267,26.7234 1.2687,0.6714 7.7067,3.6973 14.3067,6.7241 22.002,10.0903 54.7969,27.0912 62.2058,32.2477 1.9465,1.3548 3.8824,2.4632 4.3018,2.4632 0.4195,0 6.791,3.6 14.159,8 7.368,4.4 14.2666,8 15.3302,8 1.5965,0 32.63,-28.427 80.6698,-73.8943 4.7667,-4.5114 14.3667,-13.5538 21.3334,-20.0941 6.9666,-6.5403 17.7957,-16.7185 24.0646,-22.6182 6.2688,-5.8997 19.7596,-18.5267 29.9794,-28.0601 10.2198,-9.5333 24.2908,-22.6947 31.2687,-29.2475 24.2653,-22.7869 32.8755,-30.8539 51.3232,-48.0858 10.2059,-9.5333 23.988,-22.4872 30.6268,-28.7864 6.6388,-6.2991 27.3706,-25.7334 46.0706,-43.1872 18.7,-17.4539 38.8058,-36.3 44.6794,-41.8803 5.8737,-5.5804 17.8033,-16.7461 26.5102,-24.8128 18.3067,-16.9605 21.4715,-19.9198 36.8104,-34.4194 6.2333,-5.8922 14.9333,-14.0742 19.3333,-18.1823 4.4,-4.108 14.0143,-13.1532 21.365,-20.1003 7.3507,-6.9472 21.4397,-20.1313 31.3089,-29.298 9.8692,-9.1666 23.3549,-21.8368 29.9684,-28.1558 6.6134,-6.3191 14.347,-13.4949 17.1856,-15.9464 l 5.1613,-4.4572 2.6375,3.2797 c 1.4507,1.8039 7.2281,8.1149 12.8388,14.0246 5.6107,5.9097 14.9942,16.1097 20.8524,22.6667 5.8582,6.557 14.2973,15.8218 18.7536,20.5884 4.4563,4.7667 10.7632,11.6527 14.0154,15.3023 5.0953,5.7178 12.973,14.2386 26.5798,28.7493 1.8333,1.9552 8.1333,8.861 14,15.3463 17.2399,19.0579 26.4136,29.0635 29.6416,32.3294 3.011,3.0464 3.9304,5.5964 2.0251,5.6167 -0.9019,0.01 -8.7144,7.025 -23.6667,21.2519 -2.9333,2.791 -8.0333,7.3177 -11.3333,10.0594 -3.3,2.7416 -10.2233,8.9657 -15.3851,13.8314 -5.1617,4.8657 -14.1617,13.1352 -20,18.3767 -5.8382,5.2415 -12.1678,10.9415 -14.0657,12.6666 -1.8979,1.7252 -8.7485,7.9367 -15.2234,13.8034 -6.4749,5.8666 -12.7221,11.652 -13.8826,12.8563 -1.1604,1.2043 -4.8099,4.4233 -8.1099,7.1533 -3.3,2.73 -10.2398,8.9447 -15.4218,13.8104 -5.182,4.8656 -12.082,11.2536 -15.3334,14.1954 -24.595,22.2538 -50.1572,45.439 -51.3719,46.5949 -0.8033,0.7643 -6.79,6.1897 -13.3038,12.0563 -10.6229,9.5677 -16.6288,15.0251 -34.5691,31.4122 -2.9333,2.6793 -13.1333,11.943 -22.6667,20.5859 -29.6345,26.8664 -42.3227,38.3997 -50.6412,46.0314 -4.414,4.0495 -11.3254,10.3028 -15.3588,13.8961 -4.0333,3.5933 -10.6333,9.5919 -14.6666,13.3301 -4.0334,3.7382 -12.4271,11.2849 -18.6527,16.7705 -6.2257,5.4856 -11.9257,10.6258 -12.6667,11.4227 -1.1819,1.2711 -23.0262,21.2949 -42.7061,39.1472 -3.6807,3.3388 -12.3033,11.1632 -19.1614,17.3875 -6.8581,6.2244 -13.5078,12.2244 -14.7772,13.3334 -2.3043,2.0132 -23.94,21.56283 -28.0547,25.34973 -1.1952,1.1 -5.7425,5.3 -10.1051,9.3334 -16.2956,15.0656 -34.7349,31.8221 -40.5428,36.8426 -3.3,2.8527 -8.8429,7.9697 -12.3176,11.3711 l -6.3175,6.1844 7.11,14.4676 c 10.1371,20.6272 15.5251,32.0632 15.5251,32.952 0,0.4235 1.4347,3.9377 3.1881,7.8094 6.0541,13.3676 9.8039,23.7171 19.4931,53.8009 0.7253,2.252 1.3188,5.582 1.3188,7.4 0,1.8179 0.5385,3.8753 1.1968,4.572 0.6582,0.6966 1.482,3.6666 1.8307,6.6 0.3488,2.9333 1.743,12.5333 3.0983,21.3333 2.0843,13.533 2.4474,23.6312 2.3552,65.4931 -0.06,27.2212 -0.5849,50.2629 -1.1664,51.2039 -0.8496,1.3747 -13.3243,1.524 -63.5193,0.7601 -71.0748,-1.0816 -63.6005,-2.464 -61.2089,11.3205 0.6892,3.9723 1.9084,11.4224 2.7094,16.5557 0.801,5.1334 2.3866,14.7334 3.5237,21.3334 1.137,6.6 2.6154,15.9 3.2852,20.6666 1.5639,11.129 2.3613,16.2918 3.9124,25.3334 1.1903,6.938 5.1317,31.6386 8.0849,50.6666 0.7398,4.7667 1.9195,12.0028 2.6215,16.0803 0.7021,4.0775 1.2855,8.8775 1.2966,10.6667 0.053,8.6125 7.759,19.3279 30.6466,42.6154 2.5666,2.6115 8.5214,8.9233 13.2329,14.0262 8.7167,9.4411 41.7406,44.4781 51.4337,54.5691 2.9334,3.0538 12.2334,12.9968 20.6667,22.0956 14.6822,15.8409 23.3105,25.0054 48.1051,51.0946 12.956,13.6325 15.2069,16.0348 35.8949,38.3098 13.9399,15.0093 23.9684,25.6575 49.3137,52.3607 4.7775,5.0335 11.3863,11.9969 14.6863,15.4742 9.5521,10.0653 35.1151,37.5027 37.5922,40.3486 1.2424,1.4273 11.7424,12.5909 23.3333,24.808 11.591,12.2171 25.2668,26.7139 30.3907,32.2152 5.1239,5.5013 14.4239,15.4023 20.6667,22.0023 6.2427,6.6 20.3504,21.5823 31.3504,33.294 11,11.7117 25.1,26.6915 31.3334,33.2884 6.2333,6.597 16.1333,17.1034 22,23.3477 5.8666,6.2443 15.2091,16.1645 20.7611,22.0449 44.0884,46.6969 53.2389,56.5491 53.2389,57.3222 0,0.7774 -3.7685,4.4943 -12.6667,12.4931 -2.2764,2.0463 -45.0881,41.4437 -63.1831,58.1441 -3.2173,2.9694 -6.5429,5.9989 -7.3902,6.7323 -0.8473,0.7333 -5.7284,5.2333 -10.8469,10 -5.1185,4.7666 -16.1787,14.9666 -24.5782,22.6666 -16.163,14.8169 -24.8285,22.7866 -33.7896,31.0762 l -5.4873,5.0761 -5.8747,-6.4095 c -30.9329,-33.7489 -43.8792,-47.7988 -55.025,-59.7153 -4.1296,-4.4151 -10.1296,-11.0235 -13.3333,-14.6854 -3.2038,-3.6619 -10.0725,-11.1619 -15.2637,-16.6667 -5.1913,-5.5048 -17.441,-18.7087 -27.2215,-29.342 -9.7805,-10.6334 -23.335,-25.3334 -30.1212,-32.6667 -6.7862,-7.3333 -13.6335,-14.8333 -15.2163,-16.6667 -1.5828,-1.8333 -6.5129,-7.2333 -10.9559,-12 -4.443,-4.7666 -10.571,-11.3666 -13.6179,-14.6666 -3.0468,-3.3 -10.0147,-10.815 -15.4841,-16.6998 -10.0873,-10.8536 -30.5842,-33.1497 -41.6447,-45.3002 -3.3378,-3.6667 -9.2706,-10.0796 -13.1842,-14.2509 -3.9135,-4.1713 -9.2155,-9.8976 -11.7822,-12.7252 -2.5667,-2.8276 -8.8667,-9.6719 -14,-15.2096 -18.948,-20.4407 -30.6785,-33.5029 -31.1111,-34.643 -0.5405,-1.4246 -4.2329,-1.5753 -4.1958,-0.1713 0.015,0.55 0.6565,5.2 1.4266,10.3333 0.7701,5.1333 2.5989,17.7333 4.0639,28 1.4651,10.2667 3.2422,22.2667 3.9493,26.6667 0.7071,4.4 1.8213,11.9 2.4759,16.6666 1.8281,13.3102 3.7921,26.8935 6.844,47.3334 1.533,10.2666 3.3018,22.5666 3.9306,27.3333 0.6289,4.7667 1.7353,12.5667 2.4587,17.3333 0.7234,4.7667 1.9746,13.1667 2.7804,18.6667 0.8059,5.5 2.0687,13.9 2.8064,18.6667 0.7377,4.7666 1.8947,12.5666 2.5711,17.3333 0.6764,4.7667 1.8717,12.8667 2.6562,18 2.6792,17.5303 4.0248,26.6654 5.3026,36 0.7026,5.1333 1.9076,13.5333 2.6777,18.6667 0.7701,5.1333 2.0329,14.1333 2.8063,20 0.7734,5.8666 1.8797,13.9666 2.4585,18 3.616,25.1977 5.6561,38.8974 6.7509,45.3333 1.5463,9.0901 3.4731,21.5808 5.3478,34.6667 0.7879,5.5 2.001,13.6 2.6958,18 0.6947,4.4 2.4843,17.3 3.9768,28.6666 1.4926,11.3667 3.271,23.9667 3.9521,28 0.6811,4.0334 1.9,12.1334 2.7086,18 0.8087,5.8667 2.0025,13.9667 2.6531,18 1.6345,10.1333 3.666,24.0167 5.3654,36.6667 0.7881,5.8667 1.9564,13.6667 2.5962,17.3333 0.6398,3.6667 1.8489,11.4667 2.6869,17.3334 0.838,5.8666 2.0654,14.2666 2.7275,18.6666 1.4758,9.8071 4.7722,32.5875 7.4282,51.3334 1.091,7.7 2.8681,19.4 3.9491,26 2.5686,15.6817 5.4935,36.1303 8.0102,56 1.1146,8.8 2.979,21.1 4.1432,27.3333 1.1641,6.2333 2.6148,15.2333 3.2237,20 1.5224,11.9183 4.5524,33.0345 7.8441,54.6667 1.5898,10.4473 1.7227,16.0787 0.3724,15.7753 -0.55,-0.1235 -91.3,-0.6508 -201.6666,-1.1718 z"
         id="path1"
         sodipodi:nodetypes="sssssssssssssssssssssssssssssssssssssssssssssscssssssssssssssssssssssssssscssssssssssssssscsssssssssssssscssssssscsssssssssssssssssssssssssssssssscssssssssssssssssssssssssssssssssssscsssssssssssssssssssssssssssssssssssssssssscssssssssssssssssssssssssssssssssssssssssssssssssss" />
    </g>
  </g>
</svg>
