<?xml version="1.0" encoding="UTF-8" standalone="no"?>
<!-- Created with Inkscape (http://www.inkscape.org/) -->

<svg
   version="1.1"
   id="svg1"
   width="3197.3333"
   height="3200"
   viewBox="0 0 3197.3333 3200"
   sodipodi:docname="motorway_NL.svg"
   inkscape:version="1.4 (e7c3feb100, 2024-10-09)"
   xmlns:inkscape="http://www.inkscape.org/namespaces/inkscape"
   xmlns:sodipodi="http://sodipodi.sourceforge.net/DTD/sodipodi-0.dtd"
   xmlns="http://www.w3.org/2000/svg"
   xmlns:svg="http://www.w3.org/2000/svg">
  <defs
     id="defs1" />
  <sodipodi:namedview
     id="namedview1"
     pagecolor="#ffffff"
     bordercolor="#000000"
     borderopacity="0.25"
     inkscape:showpageshadow="2"
     inkscape:pageopacity="0.0"
     inkscape:pagecheckerboard="0"
     inkscape:deskcolor="#d1d1d1"
     showgrid="false"
     inkscape:zoom="0.113125"
     inkscape:cx="-1432.0442"
     inkscape:cy="2864.0884"
     inkscape:window-width="3072"
     inkscape:window-height="1659"
     inkscape:window-x="0"
     inkscape:window-y="0"
     inkscape:window-maximized="1"
     inkscape:current-layer="g1" />
  <g
     inkscape:groupmode="layer"
     inkscape:label="Image"
     id="g1">
    <g
       id="g2">
      <rect
         style="fill:#1873b9;fill-opacity:1;stroke:none;stroke-width:64.9996;stroke-dasharray:none;paint-order:fill markers stroke"
         id="rect1"
         width="3200"
         height="3200"
         x="-1.333374"
         y="0"
         rx="204.0625"
         ry="204.0625" />
      <path
         style="fill:#ffffff"
         d="m 538.99681,2922.0411 c -2.2585,-0.3215 -2.8839,-1.2798 -2.7984,-4.2874 0.061,-2.1304 0.6194,-3.5586 1.2418,-3.1739 0.6225,0.3847 1.1318,-1.4658 1.1318,-4.1122 0,-2.6463 0.8173,-6.4317 1.8163,-8.412 0.999,-1.9802 2.1837,-6.0004 2.6327,-8.9338 0.449,-2.9333 2.044,-10.7333 3.5444,-17.3333 1.5004,-6.6 3.5412,-16.8867 4.535,-22.8594 0.9939,-5.9726 2.2961,-11.6507 2.8939,-12.6179 0.5977,-0.9672 1.5139,-4.1805 2.0359,-7.1406 3.2367,-18.3539 5.2406,-27.6175 6.4719,-29.9183 0.7718,-1.442 1.4032,-4.3413 1.4032,-6.4428 0,-2.1016 0.5386,-4.391 1.1968,-5.0877 1.1532,-1.2205 2.0702,-6.1442 3.6502,-19.5992 0.409,-3.4828 1.2105,-6.044 1.781,-5.6913 0.5706,0.3526 1.4053,-2.1977 1.8549,-5.6675 1.0279,-7.9325 2.9097,-17.881 4.8504,-25.642 0.8253,-3.3 2.0353,-8.7 2.689,-12 0.6537,-3.3 1.843,-9 2.6428,-12.6666 0.7999,-3.6667 1.7683,-8.4667 2.1521,-10.6667 0.3838,-2.2 1.1942,-5.2 1.8007,-6.6667 0.6066,-1.4666 1.7456,-5.9666 2.531,-10 0.7854,-4.0333 1.7966,-9.1333 2.247,-11.3333 0.4504,-2.2 1.132,-6.4 1.5147,-9.3333 0.3827,-2.9334 1.2344,-5.9034 1.8926,-6.6 0.6583,-0.6967 1.1968,-3.8467 1.1968,-7 0,-3.1534 0.522,-5.7334 1.1599,-5.7334 1.078,0 1.7025,-2.8885 3.6031,-16.6666 0.4046,-2.9334 1.2576,-6.5334 1.8955,-8 1.1555,-2.6568 2.1671,-7.4929 3.5579,-17.0084 0.4026,-2.7546 1.2686,-5.34 1.9245,-5.7453 0.6558,-0.4054 1.1924,-3.2816 1.1924,-6.3917 0,-3.11 0.5696,-6.2246 1.2657,-6.9213 0.6962,-0.6967 1.5823,-3.3667 1.9691,-5.9333 0.3869,-2.5667 1.3385,-7.6667 2.1146,-11.3334 0.7761,-3.6666 1.7643,-9.8166 2.196,-13.6666 0.4317,-3.85 1.2475,-7 1.813,-7 0.9585,0 1.6353,-3.3026 3.4158,-16.6667 0.3908,-2.9333 1.2313,-6.5333 1.8678,-8 0.6364,-1.4667 1.459,-4.1667 1.8279,-6 0.3689,-1.8333 1.6429,-7.2333 2.8311,-12 1.1882,-4.7667 2.9931,-13.2842 4.0108,-18.9278 1.0178,-5.6436 2.4138,-11.3436 3.1022,-12.6667 1.2168,-2.3383 3.6323,-17.3441 3.1324,-19.4595 -0.1369,-0.5797 0.4538,-2.3673 1.3128,-3.9723 0.859,-1.6051 1.7394,-4.4308 1.9564,-6.2793 0.2171,-1.8486 1.3965,-7.5611 2.6209,-12.6944 1.2244,-5.1333 2.4825,-11.4333 2.7958,-14 0.3133,-2.5667 1.1393,-5.2367 1.8354,-5.9333 0.6961,-0.6967 1.2657,-3.2113 1.2657,-5.588 0,-2.3767 0.5366,-4.653 1.1925,-5.0583 1.1685,-0.7222 2.1677,-5.7582 3.6545,-18.4204 0.409,-3.4833 1.2094,-6.3333 1.7787,-6.3333 0.5692,0 1.3957,-2.85 1.8365,-6.3334 0.751,-5.9343 1.5817,-10.1976 4.8711,-25 0.7333,-3.3 1.9666,-8.85 2.7407,-12.3333 0.774,-3.4833 1.7112,-8.4333 2.0827,-11 0.3714,-2.5667 1.1972,-5.8667 1.8351,-7.3333 1.2195,-2.804 2.1876,-7.8243 3.5353,-18.3334 0.4467,-3.4833 1.3358,-6.3333 1.9759,-6.3333 0.64,0 1.1636,-2.3646 1.1636,-5.2546 0,-2.8901 0.6,-5.6255 1.3334,-6.0787 0.7333,-0.4533 1.3333,-3.1533 1.3333,-6 0,-2.8468 0.6,-5.5468 1.3333,-6 0.7334,-0.4533 1.3334,-3.4533 1.3334,-6.6667 0,-3.2134 0.6,-6.2134 1.3333,-6.6667 0.7333,-0.4532 1.3333,-3.0686 1.3333,-5.812 0,-2.7434 0.5386,-5.558 1.1968,-6.2546 0.6582,-0.6967 1.5194,-3.6667 1.9138,-6.6 0.8474,-6.3035 2.557,-14.3284 5.3967,-25.3334 1.1355,-4.4 2.0858,-9.95 2.1119,-12.3333 0.026,-2.3833 0.5695,-4.3333 1.2074,-4.3333 0.638,0 1.5285,-2.55 1.9788,-5.6667 0.4504,-3.1167 1.438,-8.6667 2.1946,-12.3333 0.7567,-3.6667 1.7529,-9.3667 2.2139,-12.6667 0.461,-3.3 1.2593,-6.3 1.774,-6.6667 0.5147,-0.3666 2.279,-8.1666 3.9207,-17.3333 1.6416,-9.1667 3.5338,-17.7085 4.2048,-18.9819 0.671,-1.2734 1.22,-4.388 1.22,-6.9213 0,-2.5334 0.5204,-4.9277 1.1565,-5.3208 0.636,-0.3931 1.5134,-3.2786 1.9496,-6.4121 0.4363,-3.1335 1.7468,-8.9972 2.9123,-13.0306 1.1655,-4.0333 2.6769,-10.3333 3.3587,-14 0.6818,-3.6666 2.5185,-12.6666 4.0814,-20 1.563,-7.3333 2.9664,-14.5987 3.1186,-16.1452 0.1523,-1.5465 0.9103,-4.5465 1.6844,-6.6667 1.5795,-4.3256 3.4645,-12.8381 5.8027,-26.2046 0.8675,-4.9591 2.108,-9.3445 2.7565,-9.7454 0.6486,-0.4008 1.1793,-2.9734 1.1793,-5.7168 0,-2.7433 0.5385,-5.5579 1.1967,-6.2546 1.1533,-1.2206 2.0703,-6.1448 3.6503,-19.6 0.409,-3.4833 1.2077,-6.3333 1.7749,-6.3333 1.0856,0 2.8089,-9.4332 3.1667,-17.3334 0.1163,-2.5666 0.9614,-5.4595 1.878,-6.4285 0.9167,-0.9691 1.6667,-4.1191 1.6667,-7 0,-2.881 0.5396,-5.2381 1.1991,-5.2381 0.6595,0 1.5159,-2.55 1.9032,-5.6667 0.3872,-3.1167 1.2953,-8.3667 2.0179,-11.6667 0.7226,-3.3 1.714,-8.4 2.2031,-11.3333 0.4891,-2.9333 1.4006,-6.5333 2.0255,-8 1.3346,-3.1324 2.567,-9.5112 3.542,-18.3333 0.3849,-3.4834 1.242,-6.3334 1.9046,-6.3334 0.6625,0 1.2046,-2.6646 1.2046,-5.9213 0,-3.2567 0.5366,-6.2529 1.1925,-6.6583 0.6559,-0.4053 1.5171,-2.9907 1.9138,-5.7453 0.3967,-2.7546 1.3601,-7.8584 2.1408,-11.3417 3.2705,-14.591 4.1972,-19.3271 4.9573,-25.3334 0.4409,-3.4833 1.3252,-6.3333 1.9652,-6.3333 0.6401,0 1.1637,-2.4081 1.1637,-5.3514 0,-2.9433 0.5474,-6.3933 1.2164,-7.6667 1.3104,-2.4943 6.0318,-22.7088 7.4761,-32.0083 0.4863,-3.1312 1.7723,-6.5812 2.8578,-7.6667 1.73,-1.73 36.2257,-1.971 279.54499,-1.9531 152.6643,0.011 278.3293,0.5014 279.2555,1.0894 1.3487,0.8562 1.3816,6.8937 0.1648,30.313 -0.8356,16.0841 -1.7249,36.4438 -1.9761,45.2438 -0.4957,17.3632 -1.6001,32.4801 -2.4765,33.8982 -0.3033,0.4906 -0.6775,10.1643 -0.8315,21.4969 -0.1541,11.3327 -0.7596,21.2247 -1.3456,21.9822 -0.586,0.7576 -1.1779,11.4203 -1.3154,23.695 -0.1374,12.2746 -0.772,22.6402 -1.4102,23.0346 -0.6381,0.3944 -1.1722,8.3317 -1.1867,17.6385 -0.014,9.3067 -0.568,20.8213 -1.2299,25.5879 -0.662,4.7667 -1.3736,17.9667 -1.5815,29.3334 -0.2078,11.3666 -0.783,21.2666 -1.2781,22 -0.4951,0.7333 -1.2839,10.9333 -1.753,22.6666 -0.469,11.7334 -1.4487,31.5334 -2.1771,44 -0.7285,12.4667 -1.8911,32.8667 -2.5836,45.3334 -0.6925,12.4666 -1.8999,33.7666 -2.6831,47.3333 -0.7832,13.5667 -2.0027,34.8667 -2.7101,47.3333 -0.7074,12.4667 -1.9049,33.4667 -2.6612,46.6667 -0.7563,13.2 -1.9127,33.9 -2.5699,46 -0.6572,12.1 -1.4875,23.6179 -1.8452,25.5953 -0.3577,1.9773 -0.8366,13.6773 -1.0642,26 -0.2276,12.3226 -0.8016,22.7047 -1.2757,23.0714 -0.474,0.3666 -1.2304,10.3444 -1.6809,22.1727 -0.4505,11.8284 -1.179,24.7284 -1.6191,28.6667 -0.44,3.9383 -1.0341,13.1606 -1.3203,20.4939 -0.2861,7.3333 -1.1048,22.3333 -1.8191,33.3333 -0.7143,11 -1.7061,32.3 -2.2038,47.3334 -0.4978,15.0333 -1.3322,27.9333 -1.8542,28.6666 -0.522,0.7334 -1.1019,11.2334 -1.2888,23.3334 -0.1958,12.6797 -0.9247,22.706 -1.7205,23.6666 -0.8529,1.0295 -0.8833,1.6667 -0.08,1.6667 0.8046,0 0.6916,2.4174 -0.2961,6.3333 -0.8785,3.4834 -1.697,15.0334 -1.8189,25.6667 -0.1219,10.6333 -0.7647,21.1333 -1.4286,23.3333 -0.6638,2.2 -1.6098,16.6 -2.1023,32 -0.4924,15.4 -1.0769,30.4 -1.2987,33.3334 -1.8715,24.7435 -4.5623,70.6404 -5.4181,92.4162 -0.3549,9.029 -1.2091,20.429 -1.8983,25.3334 -0.6892,4.9044 -1.3672,17.167 -1.5068,27.2504 -0.1396,10.0833 -0.6183,18.3345 -1.0637,18.3359 -98.1855,0.3148 -748.40819,0.5314 -750.38509,0.25 z m 1381.81339,-0.017 c -2.0681,-0.3984 -3.0847,-6.8829 -2.5432,-16.222 0.063,-1.0926 -0.4519,-6.7926 -1.145,-12.6667 -0.6932,-5.8741 -1.583,-18.7802 -1.9774,-28.6802 -0.3943,-9.9 -1.0223,-18.8976 -1.3955,-19.9946 -0.6033,-1.7737 -2.1581,-27.0509 -3.9369,-64.0054 -0.3353,-6.9667 -1.2015,-20.4366 -1.9249,-29.9332 -0.7235,-9.4966 -1.3153,-21.3466 -1.3153,-26.3334 0,-4.9867 -0.464,-9.0668 -1.0311,-9.0668 -0.5671,0 -1.2218,-8.8458 -1.4549,-19.6573 -0.2331,-10.8115 -0.7556,-20.1942 -1.1611,-20.8503 -0.4055,-0.6561 -1.2533,-12.3603 -1.8841,-26.0093 -0.6307,-13.649 -1.7116,-32.9164 -2.402,-42.8164 -1.6451,-23.5915 -3.9887,-63.583 -4.8053,-82 -0.3576,-8.0667 -1.2378,-19.4121 -1.9559,-25.212 -0.7181,-5.7999 -1.3091,-15.6999 -1.3134,-22 0,-6.3001 -0.5577,-14.812 -1.2299,-18.9154 -0.6722,-4.1034 -1.3609,-16.1034 -1.5305,-26.6667 -0.1696,-10.5632 -0.7589,-19.8059 -1.3096,-20.5392 -0.5506,-0.7334 -1.3314,-9.7334 -1.735,-20 -0.4036,-10.2667 -1.3859,-28.5667 -2.1828,-40.6667 -3.1912,-48.4486 -3.9646,-61.434 -4.7255,-79.3333 -0.4364,-10.2667 -1.26,-20.4667 -1.8304,-22.6667 -0.5703,-2.2 -1.1729,-12.3914 -1.3391,-22.6475 -0.1662,-10.2562 -0.7895,-18.9562 -1.3851,-19.3334 -0.5955,-0.3772 -1.4223,-10.8858 -1.8371,-23.3524 -0.6956,-20.9007 -1.2791,-31.0413 -4.9487,-86 -0.71,-10.6334 -1.5985,-27.1334 -1.9745,-36.6667 -0.3759,-9.5333 -1.2717,-22.0787 -1.9905,-27.8787 -0.7188,-5.7999 -1.3069,-16.7145 -1.3069,-24.2546 0,-7.5401 -0.5066,-14.0224 -1.1258,-14.4051 -0.6192,-0.3827 -1.245,-7.1172 -1.3908,-14.9656 -0.1457,-7.8484 -0.4976,-14.6463 -0.782,-15.1065 -0.2844,-0.4602 -0.8752,-11.011 -1.313,-23.4464 -0.4377,-12.4354 -1.1368,-25.6098 -1.5536,-29.2764 -1.4559,-12.8102 -4.0179,-55.4192 -6.534,-108.6667 -0.5371,-11.3667 -1.4838,-21.3092 -2.1037,-22.0945 -0.62,-0.7853 -1.0684,-3.1853 -0.9964,-5.3334 0.072,-2.148 -0.3062,-9.4662 -0.8402,-16.2628 -0.5339,-6.7965 -0.5998,-13.8357 -0.1463,-15.6425 l 0.8245,-3.2852 277.1742,-0.036 c 152.4458,-0.02 278.1371,0.3336 279.314,0.7852 1.2818,0.4918 2.1398,2.3677 2.1398,4.6784 0,2.1216 0.4806,3.8574 1.0679,3.8574 0.5874,0 1.8745,4.65 2.8602,10.3333 0.9857,5.6833 2.559,12.4333 3.4963,15 0.9373,2.5667 2.7078,10.6667 3.9346,18 1.2267,7.3333 2.7318,14.3095 3.3445,15.5025 0.6127,1.1931 1.4949,4.4931 1.9603,7.3334 1.3906,8.4857 3.5916,18.3206 4.7366,21.1641 0.5905,1.4667 2.4273,9.6839 4.0816,18.2606 1.6544,8.5767 3.4422,15.3256 3.9728,14.9977 0.5306,-0.328 1.3006,2.5547 1.711,6.406 1.5761,14.7904 2.4777,19.669 3.6351,19.669 0.6595,0 1.1991,2.3646 1.1991,5.2547 0,2.89 0.5224,5.5775 1.161,5.9722 0.6386,0.3946 1.5386,3.58 2,7.0787 1.6107,12.2115 2.4707,16.3611 3.3908,16.3611 0.5098,0 1.0762,2.55 1.2588,5.6667 0.1826,3.1166 0.8999,6.2366 1.594,6.9333 0.6941,0.6967 1.262,3.5467 1.262,6.3333 0,2.7867 0.5237,5.0667 1.1637,5.0667 0.6401,0 1.5775,3.15 2.0831,7 1.9457,14.8132 2.4036,17 3.56,17 0.6563,0 1.1932,2.58 1.1932,5.7333 0,3.1534 0.5386,6.3034 1.1968,7 0.6582,0.6967 1.5094,3.6667 1.8914,6.6 0.3821,2.9334 1.3471,8.0334 2.1446,11.3334 0.7974,3.3 2.0159,8.7 2.7076,12 0.6917,3.3 1.937,8.7 2.7672,12 0.8303,3.3 1.8222,8.4 2.2042,11.3333 0.3821,2.9333 1.2332,5.9033 1.8915,6.6 0.6582,0.6967 1.1967,3.5467 1.1967,6.3333 0,3.2659 0.6155,5.0667 1.7317,5.0667 1.1032,0 1.7496,1.8144 1.7813,5 0.059,5.9479 4.2594,28.0188 5.9596,31.3152 0.6567,1.2734 1.1941,4.1316 1.1941,6.3515 0,2.2199 0.547,5.078 1.2156,6.3514 0.6686,1.2734 1.9134,5.9152 2.7661,10.3152 0.8528,4.4 2.0868,10.1 2.7422,12.6667 3.8837,15.2088 6.6094,28.3199 6.6094,31.7918 0,2.1923 0.4767,4.186 1.0594,4.4304 0.9738,0.4086 6.4733,23.1055 7.8612,32.4445 0.327,2.2 1.1127,5.2 1.7461,6.6666 0.6334,1.4667 1.4438,4.4667 1.8008,6.6667 1.4499,8.9333 2.3655,13.4344 3.1188,15.3333 0.7454,1.8791 1.5734,6.1389 3.8227,19.6667 0.5182,3.1167 1.3132,5.6694 1.7666,5.6726 0.4534,0 0.9415,2.2423 1.0845,4.9756 0.1431,2.7333 0.8931,5.1806 1.6667,5.4385 0.7736,0.2579 1.4279,2.6689 1.4541,5.3577 0.026,2.6889 0.9812,8.4889 2.1224,12.8889 2.1883,8.437 4.1416,18.0132 5.3712,26.3334 0.4064,2.75 1.2759,5 1.9322,5 0.6564,0 1.1933,2.7 1.1933,6 0,3.3 0.5396,6 1.1991,6 0.6595,0 1.5159,2.55 1.9032,5.6666 0.3872,3.1167 1.3912,8.6667 2.2311,12.3334 0.8398,3.6666 1.8438,9.2166 2.2311,12.3333 0.3872,3.1167 1.2436,5.6667 1.9031,5.6667 0.6595,0 1.1991,2.6646 1.1991,5.9213 0,3.2567 0.5366,6.2529 1.1925,6.6583 0.6559,0.4053 1.5137,2.9907 1.9064,5.7453 0.7467,5.2385 2.5714,14.1824 4.966,24.3417 3.2211,13.6658 4.1638,18.2823 4.8329,23.6667 0.3872,3.1167 1.2436,5.6667 1.9031,5.6667 0.6595,0 1.1991,2.6646 1.1991,5.9213 0,3.2567 0.6,6.2921 1.3333,6.7453 0.7334,0.4533 1.3334,2.7687 1.3334,5.1454 0,2.3767 0.5385,4.8913 1.1967,5.588 0.6583,0.6966 1.5195,3.6666 1.9138,6.6 1.1713,8.7128 2.9822,17.326 3.9832,18.9456 0.8843,1.4308 3.2357,11.7431 4.3447,19.0544 1.3897,9.1606 2.1765,12.8979 3.2282,15.3333 0.6334,1.4667 1.5153,4.7667 1.9597,7.3333 1.4841,8.572 3.1389,16.6191 4.4554,21.6667 0.7173,2.75 0.9938,5 0.6146,5 -0.3792,0 -0.072,0.75 0.6823,1.6667 0.7545,0.9166 1.7961,4.5166 2.3146,8 0.5186,3.4833 1.4748,6.3333 2.1248,6.3333 0.6501,0 1.1908,2.25 1.2017,5 0.011,2.75 0.9565,8.9 2.1015,13.6667 1.145,4.7666 2.3094,10.3307 2.5875,12.3645 0.2782,2.0339 0.9471,4.4119 1.4864,5.2846 0.5394,0.8727 1.4004,4.0086 1.9134,6.9688 0.8645,4.9886 2.6261,13.3217 5.2248,24.7154 1.7367,7.6143 4.0355,19.0024 4.8447,24 0.4156,2.5667 1.2226,4.9667 1.7933,5.3333 0.5708,0.3667 1.3719,3.0667 1.7803,6 0.7181,5.1576 1.8779,10.7346 4.8525,23.3334 0.7791,3.3 1.7598,8.1 2.1792,10.6666 0.4194,2.5667 1.2776,5.8667 1.907,7.3334 0.6294,1.4666 1.4382,4.7666 1.7973,7.3333 0.3592,2.5667 1.3452,7.3667 2.1913,10.6667 0.846,3.3 1.8508,8.4 2.2329,11.3333 0.382,2.9333 1.2332,5.9033 1.8914,6.6 0.6582,0.6967 1.1968,2.981 1.1968,5.0762 0,4.6216 2.3762,15.4546 4.0884,18.639 0.6847,1.2734 1.2449,4.388 1.2449,6.9214 0,2.5333 0.5366,4.9377 1.1925,5.343 0.6559,0.4054 1.5171,2.9908 1.9138,5.7454 0.3967,2.7546 1.36,7.8583 2.1408,11.3417 0.7808,3.4833 2.0584,9.1833 2.8391,12.6666 0.7808,3.4834 1.7422,8.7334 2.1366,11.6667 0.3943,2.9333 1.2555,5.9033 1.9138,6.6 0.6582,0.6967 1.1967,3.4267 1.1967,6.0667 0,2.64 0.5386,5.37 1.1968,6.0666 0.6582,0.6967 1.5194,3.6667 1.9138,6.6 1.2871,9.5741 3.0223,17.3924 4.3015,19.3821 1.2521,1.9474 3.8778,14.9632 5.4369,26.9513 0.453,3.4833 1.3473,6.3333 1.9873,6.3333 0.6401,0 1.1637,1.7609 1.1637,3.9132 0,2.1523 0.5933,5.4737 1.3185,7.3809 0.966,2.541 0.8769,3.6365 -0.3334,4.0992 -1.8235,0.6972 -743.1588,1.5333 -746.7468,0.8423 z M 338.10691,1575.4479 c -0.3453,-0.5587 -0.033,-3.7106 0.6938,-7.0043 0.727,-3.2936 1.6344,-8.3884 2.0164,-11.3218 0.3821,-2.9333 1.2332,-5.9033 1.8915,-6.6 0.6582,-0.6966 1.1967,-3.7266 1.1967,-6.7333 0,-3.0067 0.5418,-6.0367 1.2041,-6.7333 0.6622,-0.6967 1.5186,-3.9667 1.9032,-7.2667 0.6889,-5.9125 1.2791,-8.8721 5.4505,-27.3328 1.1599,-5.1331 2.1089,-11.2477 2.1089,-13.588 0,-2.3403 0.6,-4.626 1.3333,-5.0792 0.7334,-0.4532 1.3334,-3.824 1.3334,-7.4907 0,-4.1049 0.5123,-6.35 1.3333,-5.8426 0.8042,0.497 1.3333,-1.2986 1.3333,-4.5253 0,-2.9421 0.5428,-6.7275 1.2062,-8.412 0.6634,-1.6845 1.8653,-6.3627 2.6709,-10.3961 0.8055,-4.0333 2.4506,-12.1333 3.6556,-18 1.205,-5.8666 2.4403,-12.7666 2.7452,-15.3333 0.3048,-2.5667 1.0407,-5.8667 1.6353,-7.3333 0.9526,-2.3497 3.8919,-15.624 4.5226,-20.4245 0.1868,-1.4223 -7.0713,-1.73 -38.0263,-1.6121 -37.2628,0.142 -38.2952,0.075 -39.7181,-2.584 -1.0313,-1.927 -1.3478,-31.6447 -1.0762,-101.0546 l 0.3848,-98.3248 1300.99999,-0.334 1301,-0.3341 v 100.5247 c 0,92.2844 -0.1808,100.5941 -2.2053,101.371 -1.2129,0.4654 -19.3511,0.794 -40.307,0.7302 -21.7533,-0.066 -38.2748,0.4033 -38.5051,1.0944 -0.222,0.6658 0.3113,2.9514 1.185,5.0791 0.8738,2.1278 1.7593,5.6687 1.9678,7.8687 0.7142,7.5344 2.0302,14.6672 3.1979,17.3333 0.6424,1.4667 1.4802,4.7667 1.8618,7.3333 0.9353,6.2914 2.9918,16.696 4.7434,24 0.7915,3.3 1.9317,9.1727 2.5339,13.0504 0.6022,3.8776 1.7922,7.7476 2.6446,8.6 0.8523,0.8523 1.5496,3.1924 1.5496,5.2002 0,2.0079 0.9622,7.7379 2.1381,12.7334 1.1759,4.9955 2.4289,10.8827 2.7843,13.0827 0.3554,2.2 1.2415,6.7 1.9691,10 0.7276,3.3 2.0393,9.7854 2.9149,14.4119 0.8756,4.6266 1.9222,8.0818 2.3257,7.6782 0.4035,-0.4035 0.7543,1.2111 0.7794,3.5881 0.066,6.2626 5.2688,31.8473 6.6749,32.8252 0.6563,0.4565 1.3112,2.4799 1.4552,4.4966 l 0.2619,3.6667 h -202.4295 c -111.3362,0 -202.7747,-0.3452 -203.1965,-0.7671 -0.4219,-0.4218 -0.156,-2.6718 0.5909,-5 0.7469,-2.3281 1.8921,-7.0829 2.5448,-10.5663 0.6528,-3.4833 1.8173,-9.4833 2.5879,-13.3333 0.7706,-3.85 1.7321,-9.4 2.1366,-12.3333 0.4045,-2.9334 1.274,-5.9034 1.9322,-6.6 0.6583,-0.6967 1.1968,-3.7267 1.1968,-6.7334 0,-3.0066 0.5385,-6.0366 1.1968,-6.7333 0.6582,-0.6967 1.5208,-3.6667 1.9169,-6.6 0.396,-2.9333 1.1338,-8.4833 1.6395,-12.3333 0.5057,-3.85 1.3667,-7 1.9135,-7 0.9094,0 1.5438,-3.5035 3.5612,-19.6667 0.389,-3.1167 1.2469,-5.6667 1.9064,-5.6667 0.6595,0 1.199,-2.58 1.199,-5.7333 0,-3.1533 0.5386,-6.3033 1.1968,-7 0.6582,-0.6967 1.5352,-3.6667 1.9488,-6.6 1.8437,-13.0742 2.4241,-16.1641 3.5064,-18.6667 0.6343,-1.4666 1.4776,-5.3666 1.8741,-8.6666 0.3964,-3.3 1.3891,-8.7 2.2059,-12 0.8169,-3.3 1.8038,-8.4 2.1932,-11.3334 0.3895,-2.9333 1.3134,-6.0824 2.0531,-6.998 1.0748,-1.3303 -178.7917,-1.732 -895.4833,-2 -841.44159,-0.3146 -896.82829,-0.1961 -896.82829,1.9193 0,1.2401 0.6,2.6255 1.3334,3.0787 0.7333,0.4533 1.3544,3.0387 1.3801,5.7454 0.026,2.7067 0.9652,8.8213 2.0875,13.588 1.1223,4.7666 2.608,12.2666 3.3015,16.6666 0.6935,4.4 2.1542,11.0924 3.2459,14.8719 1.0917,3.7795 1.985,8.6941 1.985,10.9213 0,2.2272 0.6,4.4203 1.3333,4.8735 0.7333,0.4532 1.3333,2.88 1.3333,5.3929 0,5.0399 2.32,15.9708 4.1575,19.589 0.6468,1.2734 1.1759,4.7588 1.1759,7.7454 0,2.9865 0.5285,5.1034 1.1745,4.7042 0.6459,-0.3992 1.5282,2.7154 1.9606,6.9213 0.4324,4.206 1.3812,10.6472 2.1084,14.3139 0.7272,3.6666 1.6858,8.7666 2.1302,11.3333 0.4444,2.5667 1.333,5.8667 1.9748,7.3333 0.6417,1.4667 1.4642,5.0667 1.8277,8 1.8182,14.6715 2.537,18.7775 3.5014,20 0.5785,0.7334 1.2627,4.3334 1.5205,8 l 0.4685,6.6667 -200.2519,0.3377 c -110.1386,0.1857 -200.5345,-0.1195 -200.8798,-0.6783 z M 977.35779,912.45514 c 0.15491,-4.0333 1.02649,-8.2333 1.93683,-9.3333 0.91035,-1.1 1.98293,-4.4 2.38353,-7.3333 1.60006,-11.7163 4.70815,-28.6209 5.49693,-29.8972 0.45993,-0.7442 1.07382,-3.3217 1.3642,-5.7279 0.29037,-2.4062 1.53391,-7.6749 2.76341,-11.7083 1.2295,-4.0333 2.74051,-10.0333 3.35782,-13.3333 1.20827,-6.4593 2.92917,-14.4397 5.17529,-24 1.7016,-7.2421 4.1032,-19.1873 4.9595,-24.6667 0.3438,-2.2 1.147,-5.2 1.7849,-6.6666 0.6378,-1.4667 1.4685,-4.7667 1.8458,-7.3334 1.3769,-9.3652 2.3519,-14.0568 3.4639,-16.6666 0.6248,-1.4667 1.4793,-4.7667 1.8987,-7.3334 0.4195,-2.5666 1.3709,-7.3666 2.1143,-10.6666 1.9411,-8.6162 4.0276,-18.702 4.827,-23.3334 0.3797,-2.2 1.2036,-5.2 1.8307,-6.6666 0.6271,-1.4667 1.4836,-5.0667 1.9033,-8 0.4197,-2.9334 1.399,-8.3334 2.1763,-12 0.7772,-3.6667 1.717,-8.7667 2.0885,-11.3334 0.3714,-2.5666 1.1972,-5.8666 1.8351,-7.3333 1.1324,-2.6036 2.0994,-7.2252 3.4875,-16.6667 0.3773,-2.5666 1.1845,-5.8666 1.7938,-7.3333 1.8242,-4.3913 6.7269,-27.0243 6.7269,-31.0542 0,-2.0602 0.5385,-4.3158 1.1967,-5.0125 0.6583,-0.6966 1.5721,-3.9666 2.0308,-7.2666 1.651,-11.8778 3.0707,-19.3085 3.4391,-18 0.2065,0.7333 0.8371,-1.6667 1.4014,-5.3334 0.5642,-3.6666 1.9659,-10.2666 3.1148,-14.6666 1.1489,-4.4 2.2254,-9.95 2.3923,-12.3334 0.1668,-2.3833 0.6747,-4.3333 1.1287,-4.3333 0.454,0 1.5232,-3.45 2.3759,-7.6667 0.8528,-4.2166 2.7942,-13.0666 4.3144,-19.6666 5.0292,-21.8352 5.4486,-23.916 7.0333,-34.8941 0.8649,-5.9917 2.0226,-11.3417 2.5726,-11.8888 0.55,-0.5472 1.0092,-4.0449 1.0204,-7.7727 0.013,-4.4971 0.4209,-6.1451 1.2107,-4.8975 0.8196,1.2948 1.4846,-0.4753 2.1354,-5.6843 0.5198,-4.1605 1.475,-7.892 2.1226,-8.2923 0.6477,-0.4002 1.1775,-3.0923 1.1775,-5.9823 0,-2.8901 0.5237,-5.2547 1.1637,-5.2547 0.6401,0 1.5145,-2.85 1.9431,-6.3333 0.4287,-3.4834 1.4426,-9.0334 2.2532,-12.3334 0.8106,-3.3 2.0086,-8.7 2.6623,-12 0.6538,-3.3 1.8495,-9 2.6572,-12.6666 0.8077,-3.6667 1.7725,-8.7667 2.1439,-11.3334 0.3714,-2.5666 1.1785,-5.8666 1.7936,-7.3333 0.615,-1.4667 1.8701,-7.1667 2.7891,-12.6667 0.9189,-5.5 2.1785,-10.57 2.799,-11.2666 0.6206,-0.6967 1.1283,-3.5113 1.1283,-6.2547 0,-2.7434 0.5366,-5.3196 1.1925,-5.7249 0.6558,-0.4054 1.517,-2.9908 1.9137,-5.7454 0.6728,-4.6715 1.2374,-7.3876 4.9906,-24.0084 0.7866,-3.4833 1.7448,-9.0333 2.1293,-12.3333 0.3845,-3.3 1.2409,-6.57 1.9031,-7.2667 0.6623,-0.6966 1.2041,-2.9112 1.2041,-4.9213 0,-2.01 0.5605,-4.001 1.2455,-4.4244 0.9425,-0.5825 161.2604,-0.9465 320.5531,-0.728 l 5.1318,0.01 -0.3942,13 c -0.2168,7.15 -0.8057,13.6 -1.3086,14.3334 -0.5029,0.7333 -1.3117,11.2333 -1.7973,23.3333 -0.4856,12.1 -1.3933,31.3 -2.017,42.6667 -0.6237,11.3666 -1.7871,33.1582 -2.5854,48.4257 -0.7983,15.2675 -1.7017,28.1675 -2.0076,28.6667 -0.3058,0.4992 -0.7246,10.2076 -0.9306,21.5742 -0.206,11.3667 -0.8266,21.9536 -1.3791,23.5264 -0.5525,1.5729 -1.128,12.3729 -1.2788,24 -0.1508,11.6272 -0.7173,21.7403 -1.2589,22.4736 -0.5417,0.7334 -1.3654,10.3334 -1.8306,21.3334 -0.8517,20.1403 -2.59,53.1452 -4.8103,91.3333 -0.6608,11.3667 -1.7586,32.457 -2.4394,46.8674 -0.6809,14.4103 -1.548,26.7103 -1.9269,27.3333 -0.3789,0.6229 -0.868,11.3326 -1.0868,23.7993 -0.2188,12.4667 -0.8177,23.2667 -1.3308,24 -0.5131,0.7333 -1.3078,10.6333 -1.766,22 -0.4583,11.3667 -1.3927,30.5667 -2.0765,42.6667 -0.6838,12.1 -1.7999,34.2062 -2.4803,49.1248 -0.9222,20.2228 -1.7143,27.6022 -3.1129,29.0008 -1.5939,1.5939 -33.904,1.926 -214.9087,2.2085 l -213.03288,0.3326 z m 815.99241,6.447 c -2.0441,-0.7561 -2.5324,-3.2057 -3.3223,-16.6667 -0.5093,-8.6791 -1.4867,-24.7803 -2.1719,-35.7803 -0.6853,-11 -1.8434,-29.6 -2.5736,-41.3333 -0.7301,-11.7333 -1.9595,-31.2333 -2.7319,-43.3333 -2.5889,-40.5565 -3.9527,-61.8606 -5.2921,-82.6667 -0.7317,-11.3667 -1.8946,-29.6667 -2.5841,-40.6667 -0.6896,-11 -1.9161,-29 -2.7256,-40 -1.7385,-23.6233 -3.7998,-55.95 -5.3986,-84.6666 -0.6328,-11.3667 -1.4319,-22.7667 -1.7758,-25.3334 -0.6755,-5.0415 -1.4291,-18.59 -2.7811,-50 -0.4735,-11 -1.4212,-26 -2.1059,-33.3333 -0.6847,-7.3333 -1.5584,-20.7367 -1.9414,-29.7853 -0.3831,-9.0485 -0.9968,-16.9378 -1.3638,-17.5316 -0.5972,-0.9663 -2.0617,-22.3475 -4.0194,-58.6831 -0.3753,-6.9667 -0.9986,-14.7667 -1.385,-17.3333 -1.5955,-10.5978 -1.6742,-24 -0.1411,-24.0105 0.8445,-0.01 74.1029,0 162.7965,0.01 126.9925,0.017 161.4846,0.3729 162.3129,1.6771 0.5785,0.9109 1.061,3.0144 1.0722,4.6743 0.011,1.66 0.562,4.06 1.224,5.3333 0.662,1.2734 1.9408,6.5153 2.8418,11.6486 0.9009,5.1334 1.9738,9.9113 2.3841,10.6178 0.4104,0.7064 0.9631,3.4064 1.2282,6 0.2652,2.5935 1.0507,5.2856 1.7456,5.9822 0.6948,0.6967 1.2634,3.0541 1.2634,5.2387 0,2.1846 0.5588,5.8146 1.2419,8.0667 0.6831,2.252 1.9613,8.2946 2.8405,13.428 0.8792,5.1333 2.0393,9.9333 2.578,10.6666 0.5387,0.7334 1.3566,3.7334 1.8176,6.6667 1.3327,8.4808 3.1849,16.1191 3.5564,14.6667 0.3189,-1.2468 1.0709,2.8452 3.3746,18.3639 0.5196,3.5002 1.4651,6.6856 2.1012,7.0787 0.636,0.3931 1.1564,2.9593 1.1564,5.7027 0,2.7434 0.5386,5.558 1.1968,6.2547 1.1107,1.1756 1.6313,3.8785 3.6466,18.9333 0.4172,3.1167 1.2981,5.6667 1.9576,5.6667 0.6595,0 1.199,2.6645 1.199,5.9213 0,3.2567 0.6,6.2921 1.3334,6.7453 0.7333,0.4532 1.3333,3.1532 1.3333,6 0,2.8468 0.5366,5.5076 1.1925,5.913 0.6559,0.4053 1.4908,2.9907 1.8553,5.7453 0.3646,2.7546 1.9816,10.4084 3.5935,17.0084 1.6119,6.6 3.2352,14.7 3.6073,18 0.3722,3.3 1.2184,6.57 1.8807,7.2667 0.6622,0.6966 1.204,3.2466 1.204,5.6666 0,2.42 0.6,4.4 1.3334,4.4 0.7333,0 1.3333,2.9646 1.3333,6.588 0,3.6234 0.5204,6.9096 1.1565,7.3027 0.6361,0.3931 1.5313,3.2785 1.9895,6.412 1.6844,11.5206 2.3944,15.0893 3.5207,17.6973 0.6334,1.4667 1.4656,4.4667 1.8494,6.6667 1.4627,8.3837 3.2149,16.1473 4.514,20 0.7419,2.2 2.0845,7.6 2.9835,12 0.8991,4.4 2.4396,11.6 3.4233,16 2.0654,9.238 3.2169,15.4144 4.1016,22 0.3448,2.5667 1.1385,5.8667 1.7637,7.3333 1.685,3.9524 4.2217,13.9716 4.9794,19.6667 0.3658,2.75 1.2022,5 1.8585,5 0.6563,0 1.1932,1.6502 1.1932,3.6671 0,2.017 0.9651,7.867 2.1445,13 1.1795,5.1331 2.4425,11.5829 2.8067,14.3329 0.3643,2.75 1.1993,5 1.8556,5 0.6563,0 1.1932,2.6646 1.1932,5.9213 0,3.2567 0.6,6.2921 1.3334,6.7454 0.7333,0.4532 1.3333,2.696 1.3333,4.984 0,2.288 0.5798,6.0026 1.2884,8.2546 1.1192,3.5572 4.3691,19.0856 6.3681,30.428 0.3554,2.0167 1.1781,3.6667 1.8282,3.6667 0.6501,0 1.182,2.6646 1.182,5.9213 0,3.2567 0.6,6.2921 1.3333,6.7454 0.7333,0.4532 1.3333,3.1886 1.3333,6.0786 0,2.8901 0.5396,5.2547 1.1991,5.2547 0.6595,0 1.5243,2.55 1.9217,5.6667 0.3974,3.1166 1.3883,8.9666 2.202,13 0.8137,4.0333 1.8104,9.7333 2.2149,12.6666 0.4045,2.9334 1.274,5.9034 1.9322,6.6 0.6583,0.6967 1.1968,3.2548 1.1968,5.6848 0,2.4299 0.5416,5.4599 1.2036,6.7333 0.662,1.2734 1.9403,6.5153 2.8405,11.6486 0.9003,5.1333 2.0875,9.9333 2.6384,10.6667 0.969,1.29 1.7049,4.7933 3.3613,16 0.4335,2.9333 1.3327,6.5333 1.9981,8 0.6654,1.4666 1.3782,4.7666 1.584,7.3333 0.2461,3.0702 0.9868,4.5385 2.165,4.2919 1.3813,-0.289 1.5814,0.865 0.875,5.0461 -0.6091,3.6053 -0.357,6.0942 0.7526,7.4313 1.0775,1.2982 1.2105,2.4683 0.3757,3.3032 -1.4686,1.4685 -421.7482,2.4964 -425.6826,1.0411 z m -722.673,-453.8914 c 0.064,-1.5533 0.38,-1.8692 0.8056,-0.8056 0.3852,0.9625 0.3378,2.1125 -0.1053,2.5556 -0.443,0.4431 -0.7582,-0.3444 -0.7003,-1.75 z m 29.2281,-139.2222 c 0,-0.7334 0.6,-1.3334 1.3333,-1.3334 0.7334,0 1.3334,0.6 1.3334,1.3334 0,0.7333 -0.6,1.3333 -1.3334,1.3333 -0.7333,0 -1.3333,-0.6 -1.3333,-1.3333 z"
         id="path1"
         sodipodi:nodetypes="sssssssssssssssssssssssssssssssssssssssssssssssssssssssssssssssssssssssssssssssssssssssssssssssssssssssssssssssssssssssssssssssssssssssssssssssssssssssscssssssssssssssssscsssssssssssssssssssssssscssssssssssssssssssssssssssssssssssssssssssssssscsssssssssssssssssssssssssssssssssssssssssssssssssssssssssssssssssssssssssssssssssssssssssscccsssssssssssssssssssscsssssssssssssssssssssssssssssssssssssssssscssssssssssssssssssssssssssssssssssssssssssssssssssssssssssccssssssssssssssssssssscsssssssssssssssssccsssssssssssssssssssssssssssssssssssssssssssssssssssssssssssssssssssssssssssssssss" />
    </g>
  </g>
</svg>
