<?xml version="1.0" encoding="UTF-8" standalone="no"?>
<!-- Created with Inkscape (http://www.inkscape.org/) -->

<svg
   version="1.1"
   id="svg1"
   width="3200"
   height="3200"
   viewBox="0 0 3200 3200"
   sodipodi:docname="train_station_koploper.svg"
   inkscape:version="1.4 (e7c3feb100, 2024-10-09)"
   xml:space="preserve"
   xmlns:inkscape="http://www.inkscape.org/namespaces/inkscape"
   xmlns:sodipodi="http://sodipodi.sourceforge.net/DTD/sodipodi-0.dtd"
   xmlns="http://www.w3.org/2000/svg"
   xmlns:svg="http://www.w3.org/2000/svg"><defs
     id="defs1" /><sodipodi:namedview
     id="namedview1"
     pagecolor="#ffffff"
     bordercolor="#000000"
     borderopacity="0.25"
     inkscape:showpageshadow="2"
     inkscape:pageopacity="0.0"
     inkscape:pagecheckerboard="0"
     inkscape:deskcolor="#d1d1d1"
     showgrid="false"
     inkscape:zoom="0.22625"
     inkscape:cx="1803.3149"
     inkscape:cy="2086.1878"
     inkscape:window-width="3072"
     inkscape:window-height="1659"
     inkscape:window-x="0"
     inkscape:window-y="0"
     inkscape:window-maximized="1"
     inkscape:current-layer="g1" /><g
     inkscape:groupmode="layer"
     inkscape:label="Image"
     id="g1"><g
       id="g2"><rect
         style="fill:#ffffff;stroke:#000000;stroke-width:63.706;stroke-dasharray:none;paint-order:fill markers stroke"
         id="rect1"
         width="3136.2939"
         height="3136.2939"
         x="31.853001"
         y="31.853001"
         rx="200"
         ry="200" /><path
         style="fill:#000000;stroke-width:1.00012"
         d="m 402.88832,2777.0144 c -0.022,-0.5501 -0.17219,-32.356 -0.3333,-70.6798 l -0.2929,-69.6795 141.6907,-10e-5 141.6909,-1e-4 -0.3491,-51.4999 -0.349,-51.5 -6.5018,-2.5539 c -3.5759,-1.4046 -12.2764,-5.3128 -19.3344,-8.6849 -7.058,-3.372 -17.033,-8.1229 -22.1666,-10.5574 -16.7577,-7.9472 -36.7535,-18.9234 -59.4238,-32.6191 -11.6082,-7.0129 -18.858,-11.1975 -28.5815,-16.4974 -1.4668,-0.7995 -2.9668,-1.7846 -3.3335,-2.1894 -0.3667,-0.4047 -3.3669,-2.5394 -6.6671,-4.7437 -14.2514,-9.5192 -35.2396,-24.9653 -39.2846,-28.9112 -0.9111,-0.8888 -4.5955,-4.0165 -8.1875,-6.9503 -39.1749,-31.9966 -70.2193,-72.1981 -81.7343,-105.8434 -7.2615,-21.2167 -6.8172,17.91 -6.811,-599.7662 0,-500.9652 0.254,-573.351 2.0309,-590.7769 4.5857,-44.9728 15.3278,-89.3216 30.6718,-126.62892 6.9409,-16.8763 18.4613,-40.5466 23.7849,-48.8698 2.6723,-4.178 4.8587,-7.8896 4.8587,-8.2481 0,-1.2153 15.0963,-22.7674 22.0519,-31.4824 8.1898,-10.26105 29.2054,-31.08338 38.6148,-38.25948 3.6649,-2.79506 7.4791,-5.85309 8.4758,-6.79563 2.735,-2.58615 15.4619,-10.9779 28.5097,-18.79833 l 11.6471,-6.98092 65.77471,-132.28079 c 36.1762,-72.75445 78.29899,-157.59388 93.6064,-188.5321 l 27.83159,-56.25131 12.08691,-2.73318 c 20.09559,-4.54421 31.344,-6.79697 47.42219,-9.49738 8.4339,-1.4165 19.83461,-3.46971 25.3349,-4.5627 5.5003,-1.09298 14.0508,-2.60418 19.0011,-3.3582 4.9503,-0.75402 12.7508,-2.00905 17.3344,-2.78897 10.51645,-1.78938 9.33915,-1.64315 48.33615,-6.00421 2.93361,-0.32805 9.53401,-1.15269 14.6676,-1.83254 9.2561,-1.22578 22.529,-2.34142 72.67093,-6.10826 31.031,-2.33116 161.9256,-1.97001 190.0113,0.52425 9.534,0.84668 24.8349,2.16199 34.0021,2.92288 9.1672,0.7609 21.7679,2.00105 28.0016,2.75589 6.2338,0.75484 13.4342,1.57666 16.001,1.82629 22.8559,2.22268 35.506,3.74285 44.0026,5.28782 5.5003,1.00015 14.8009,2.514 20.6679,3.3641 5.8671,0.85011 13.3675,2.11614 16.6677,2.8134 7.4251,1.56873 9.7623,1.98845 17.3343,3.1129 15.8259,2.35013 65.0524,12.59503 68.0854,14.16976 1.1449,0.59438 7.7453,12.55749 14.6676,26.5847 6.9223,14.0272 49.1946,98.81765 93.9384,188.42322 l 81.3522,162.91923 9.3197,5.36904 c 51.0269,29.39603 85.154,66.61682 114.9669,125.38852 8.3892,16.5381 19.027,41.66512 19.027,44.94252 0,1.0265 0.507,2.4364 1.1266,3.1332 1.7122,1.9257 9.0827,26.5816 11.5069,38.4933 1.1813,5.8051 2.3868,10.9412 2.6787,11.4136 0.9042,1.4632 7.4779,40.1116 9.6463,56.713 1.4928,11.4291 1.9323,1157.8696 0.4476,1167.5514 -1.7344,11.3097 -8.1107,30.9224 -12.7902,39.3407 -2.0386,3.6673 -4.9852,9.0683 -6.5479,12.0023 -18.4464,34.6313 -65.1077,79.574 -121.4081,116.9362 -5.9666,3.9595 -41.556,25.3707 -44.6694,26.8737 -1.1001,0.5311 -5.0003,2.7228 -8.6671,4.8703 -17.7082,10.3711 -61.3946,32.0878 -79.3381,39.4393 l -7.3338,3.0047 -0.349,51.4654 -0.349,51.4653 h 284.6992 284.6994 v -290.0542 -290.0542 h 349.354 349.3541 v 360.734 360.7341 H 1600.3334 c -658.57253,0 -1197.42278,-0.4501 -1197.44508,-1.0002 z m 983.43238,-176.705 v -35.6787 H 1107.6374 828.95412 l -0.3565,34.3247 c -0.196,18.8787 -0.064,35.0862 0.2927,36.0168 0.5222,1.361 55.1154,1.6262 279.03978,1.3555 l 278.3906,-0.3397 z m 308.6651,-841.4852 c -0.03,-493.4517 0.4874,-460.3587 -7.4396,-476.0038 -6.3998,-12.6308 -18.8401,-23.2712 -40.8801,-34.9652 -30.7563,-16.3186 -87.4087,-32.901 -139.6716,-40.8823 -9.9005,-1.512 -19.2011,-2.974 -20.6679,-3.2489 -1.4668,-0.2749 -11.9674,-1.7409 -23.3347,-3.2579 -11.3674,-1.5168 -23.6681,-3.3175 -27.335,-4.0014 -7.7676,-1.4486 -18.6834,-2.6634 -41.3358,-4.6002 -5.867,-0.5017 -15.4676,-1.4904 -21.3345,-2.1973 -14.0571,-1.6936 -21.6526,-2.2666 -52.6699,-3.9732 -14.3008,-0.7869 -34.702,-1.9914 -45.336,-2.6767 -10.634,-0.6852 -36.8856,-1.2583 -58.3368,-1.2734 l -39.0024,-0.027 v 479.9048 479.9047 l 57.0034,0.8639 c 61.5192,0.9321 100.5181,2.4954 138.3417,5.5455 13.2008,1.0645 33.3019,2.5666 44.6692,3.3381 22.5022,1.5271 26.9904,1.919 44.0026,3.842 6.2338,0.7048 17.9345,1.9664 26.0016,2.8038 8.0672,0.8373 20.6679,2.3427 28.0017,3.3451 7.3338,1.0024 17.8344,2.1927 23.3347,2.6452 49.0302,4.0335 128.3869,27.2064 148.8401,43.4626 2.678,2.1285 5.3883,3.8699 6.023,3.8699 0.6473,0 1.1418,-198.5968 1.1263,-452.4178 z m -180.842,282.3861 c -0.5237,-1.3648 -2.6591,-2.0004 -6.7205,-2.0004 -3.6354,0 -6.7691,-0.8164 -8.0495,-2.0968 -1.2664,-1.2665 -3.2802,-1.7997 -5.0858,-1.3464 -1.8105,0.4544 -3.6396,-0.033 -4.6386,-1.2372 -0.907,-1.0931 -2.7947,-1.9874 -4.1946,-1.9874 -1.4,0 -2.8908,-0.9002 -3.3129,-2.0004 -0.4222,-1.1002 -2.2035,-2.0004 -3.9585,-2.0004 -1.7549,0 -3.1908,-0.6001 -3.1908,-1.3336 0,-0.7335 -1.18,-1.3336 -2.6224,-1.3336 -3.3258,0 -12.0451,-8.6171 -12.0451,-11.904 0,-1.3641 -0.9001,-2.8254 -2.0002,-3.2476 -1.1,-0.4222 -2.0001,-1.9513 -2.0001,-3.398 0,-1.4466 -0.6,-3.0012 -1.3334,-3.4545 -0.7334,-0.4533 -1.3334,-2.0079 -1.3334,-3.4545 0,-1.4467 -0.9001,-2.9758 -2.0002,-3.398 -1.2904,-0.4953 -2.0001,-2.5588 -2.0001,-5.8166 0,-3.4357 -0.6941,-5.3153 -2.1724,-5.8827 -1.6883,-0.6479 -2.0129,-2.023 -1.4565,-6.1716 0.4826,-3.5992 0.1108,-5.9431 -1.1417,-7.1958 -2.842,-2.8424 -2.8759,-166.8234 -0.035,-169.9698 1.2563,-1.3913 1.7129,-3.8321 1.295,-6.922 -0.4481,-3.3138 -0.01,-5.3001 1.4327,-6.4978 1.143,-0.9487 2.0781,-3.7706 2.0781,-6.271 0,-2.8108 0.7636,-4.8392 2.0001,-5.3138 1.1001,-0.4222 2.0002,-1.8301 2.0002,-3.1288 0,-1.2986 0.8644,-3.0787 1.9209,-3.9555 1.0564,-0.877 1.5942,-2.4457 1.1951,-3.4861 -0.3993,-1.0404 0.2365,-2.2609 1.4126,-2.7123 1.1761,-0.4514 2.1385,-1.9865 2.1385,-3.4113 0,-3.0402 8.0639,-11.7934 10.8647,-11.7934 1.0605,0 4.2719,-2.4005 7.1363,-5.3344 2.8645,-2.9339 6.3053,-5.3343 7.6463,-5.3343 1.3409,0 2.7835,-0.9002 3.2056,-2.0004 0.5357,-1.3963 2.7137,-2.0004 7.2132,-2.0004 3.5451,0 6.8165,-0.6001 7.2697,-1.3335 1.205,-1.95 30.4059,-1.7297 32.3794,0.244 0.9289,0.9291 4.6037,1.4376 8.9385,1.2368 5.6822,-0.2633 7.5445,0.1373 8.1658,1.7562 0.4425,1.1535 2.0905,2.1003 3.6622,2.104 1.6843,0 4.7139,2.194 7.3791,5.3343 2.4869,2.9302 5.5232,5.3277 6.7473,5.3277 3.0746,0 10.7324,7.755 10.7324,10.8687 0,1.403 0.9,2.8963 2.0001,3.3184 1.1001,0.4222 2.0001,2.1395 2.0001,3.8162 0,1.6768 0.9001,3.3941 2.0001,3.8163 1.1001,0.4221 2.0002,1.9131 2.0002,3.3133 0,1.4001 0.8644,3.2632 1.9209,4.14 1.0564,0.877 1.6292,2.3546 1.2726,3.2837 -0.3564,0.929 0.2793,2.4589 1.4127,3.3997 1.268,1.0525 2.0609,3.8937 2.0609,7.3851 0,3.4171 0.7956,6.335 2.0001,7.3347 1.7403,1.4445 2.0001,12.905 2.0001,88.2215 0,75.7134 -0.2506,86.6577 -2.0001,87.3292 -1.3911,0.5339 -2.0001,2.7047 -2.0001,7.1295 0,4.1114 -0.7291,6.967 -2.0609,8.0725 -1.1334,0.9408 -1.7436,2.5373 -1.3558,3.5477 0.3877,1.0104 -0.1851,2.1788 -1.2727,2.5961 -1.0878,0.4175 -1.9777,2.1309 -1.9777,3.8077 0,1.6767 -0.9001,3.394 -2.0002,3.8162 -1.1,0.4221 -2.0001,1.9131 -2.0001,3.3133 0,1.4001 -0.9,3.2928 -2.0001,4.2059 -1.1001,0.9131 -2.0001,2.6692 -2.0001,3.9024 0,2.8464 -8.0813,10.767 -10.9855,10.767 -1.2051,0 -2.562,0.6001 -3.0154,1.3336 -0.4532,0.7335 -2.0075,1.3336 -3.454,1.3336 -1.4464,0 -2.9753,0.9002 -3.3975,2.0004 -0.4221,1.1002 -2.1392,2.0004 -3.8157,2.0004 -1.6765,0 -3.4217,0.9732 -3.8781,2.1629 -0.6179,1.6104 -1.8597,1.9569 -4.8604,1.3567 -2.885,-0.577 -4.2461,-0.2442 -4.7891,1.171 -0.5236,1.3649 -2.7286,1.9772 -7.1197,1.9772 -4.0277,0 -6.97,0.7338 -8.0211,2.0004 -1.0162,1.2246 -3.9398,2.0003 -7.5388,2.0003 -3.9958,0 -6.1249,-0.6408 -6.6465,-2.0003 z m -984.23328,164.213 c 11.6347,-7.4268 20.0347,-11.2121 39.0627,-17.6028 37.4979,-12.5938 77.9275,-21.3782 113.0379,-24.5606 7.9198,-0.7179 18.1204,-1.8813 22.6679,-2.5855 4.5476,-0.7043 14.8686,-1.9503 22.9358,-2.769 8.067,-0.8188 19.4677,-2.0626 25.3348,-2.7642 15.7951,-1.8885 21.2285,-2.3546 52.6698,-4.5177 15.7675,-1.0848 35.5687,-2.5721 44.0026,-3.3049 27.4259,-2.3833 71.52055,-4.0524 130.34115,-4.9338 l 57.67003,-0.8642 v -479.9202 -479.9203 l -41.00233,0.1926 c -22.5514,0.1058 -48.8029,0.684 -58.3369,1.2849 -9.5339,0.6008 -29.0351,1.7356 -43.336,2.5217 -36.64095,2.0142 -43.51495,2.5243 -53.33635,3.9579 -4.767,0.6958 -14.0676,1.6153 -20.668,2.0432 -12.464,0.8081 -23.552,2.0759 -47.3361,5.4128 -7.7005,1.0804 -20.6012,2.8811 -28.6684,4.0016 -34.5925,4.8049 -42.7017,6 -44.6287,6.5772 -1.1223,0.3362 -3.5408,0.903 -5.3742,1.2593 -20.4873,3.9822 -51.1493,11.3812 -69.3374,16.7317 -20.9306,6.1574 -52.9415,18.7091 -61.3371,24.0508 -1.1,0.6999 -5.3003,3.0959 -9.3338,5.3243 -11.8363,6.5395 -22.6724,17.8846 -28.7266,30.0762 l -5.2754,10.6234 -0.3466,457.0854 c -0.2282,301.1224 0.1043,457.0854 0.9742,457.0854 0.7265,0 4.4826,-2.0183 8.347,-4.4852 z m 166.8513,-164.213 c -0.5343,-1.3926 -2.7066,-2.0004 -7.1492,-2.0004 -4.4773,0 -6.6137,-0.6043 -7.1588,-2.0251 -0.5419,-1.4121 -1.9502,-1.8183 -4.6534,-1.342 -2.5057,0.4415 -4.4608,-0.021 -5.5292,-1.3089 -0.9092,-1.0956 -2.7984,-1.9918 -4.1984,-1.9918 -1.4,0 -2.8907,-0.9002 -3.3129,-2.0004 -0.4221,-1.1002 -2.1392,-2.0004 -3.8157,-2.0004 -1.6765,0 -3.3897,-0.8901 -3.8071,-1.978 -0.4174,-1.0878 -1.6208,-1.647 -2.6743,-1.2427 -2.4406,0.9367 -11.5197,-8.0091 -11.5197,-11.3505 0,-1.3641 -0.9,-2.8254 -2.0001,-3.2476 -1.1001,-0.4222 -2.0001,-1.9513 -2.0001,-3.398 0,-1.4466 -0.6,-3.0012 -1.3334,-3.4545 -0.7334,-0.4533 -1.3335,-2.0079 -1.3335,-3.4545 0,-1.4467 -0.9,-2.9758 -2.0001,-3.398 -1.2905,-0.4953 -2.0001,-2.5588 -2.0001,-5.8166 0,-3.4357 -0.6941,-5.3153 -2.1724,-5.8827 -1.6884,-0.6479 -2.013,-2.023 -1.4565,-6.1716 0.4853,-3.6194 0.1115,-5.9424 -1.1612,-7.2153 -2.7956,-2.7959 -2.8061,-167.6677 -0.011,-169.9879 1.2498,-1.0373 1.6446,-3.2021 1.1952,-6.5531 -0.4811,-3.5874 -0.066,-5.5067 1.4673,-6.7791 1.1969,-0.9935 2.1384,-3.7763 2.1384,-6.321 0,-2.8108 0.76341,-4.8392 2.0001,-5.3138 1.1001,-0.4222 2.0001,-2.2036 2.0001,-3.9588 0,-1.7553 0.6001,-3.1913 1.3334,-3.1913 0.7334,0 1.3334,-1.2191 1.3334,-2.709 0,-1.49 0.9,-3.0545 2.0001,-3.4767 1.1001,-0.4222 2.0001,-1.9637 2.0001,-3.4254 0,-3.0248 8.1107,-11.7262 10.9301,-11.7262 1.0245,0 4.2065,-2.4005 7.071,-5.3344 2.8646,-2.9339 6.3054,-5.3343 7.6463,-5.3343 1.3409,0 2.7834,-0.9002 3.2055,-2.0004 0.5716,-1.4895 2.9448,-2.0004 9.2921,-2.0004 4.7941,0 8.5245,-0.5836 8.5245,-1.3335 0,-1.8408 31.0379,-1.7643 32.8829,0.081 0.7779,0.778 3.9443,1.4495 7.0364,1.4922 3.4935,0.048 5.8896,0.7749 6.3288,1.9193 0.3886,1.013 1.8431,1.8418 3.2323,1.8418 1.389,0 4.8548,2.4004 7.7017,5.3343 2.8469,2.9339 6.1802,5.3344 7.4074,5.3344 2.8765,0 10.0815,7.8668 10.0815,11.0076 0,1.3266 0.9001,2.7573 2.0002,3.1795 1.1,0.4222 2.0001,2.1395 2.0001,3.8162 0,1.6767 0.9,3.3941 2.0001,3.8162 1.1001,0.4222 2.0001,1.9132 2.0001,3.3134 0,1.4001 0.8644,3.2632 1.9208,4.14 1.0565,0.877 1.5943,2.4457 1.1951,3.4861 -0.3992,1.0404 0.2365,2.2609 1.4127,2.7123 1.5488,0.5944 2.1384,2.5749 2.1384,7.1826 0,4.0282 0.7338,6.9711 2.0001,8.0222 1.7402,1.4444 2.0002,12.8822 2.0002,88.0164 0,75.1342 -0.26,86.5721 -2.0002,88.0164 -1.2043,0.9998 -2.0001,3.9177 -2.0001,7.3348 0,3.4172 -0.7956,6.335 -2.0001,7.3347 -1.1001,0.9131 -2.0001,2.7869 -2.0001,4.1641 0,1.377 -0.6001,2.5038 -1.3334,2.5038 -0.7333,0 -1.3334,1.4361 -1.3334,3.1912 0,1.7553 -0.9,3.5368 -2.0001,3.959 -1.1001,0.4221 -2.0001,2.2225 -2.0001,4.0007 0,1.7782 -0.9001,3.5786 -2.0001,4.0008 -1.1001,0.4221 -2.0002,1.8546 -2.0002,3.1832 0,2.8337 -8.7403,11.5282 -10.4972,10.4422 -0.6607,-0.4084 -1.9428,0.151 -2.8491,1.2431 -0.9063,1.0922 -2.7932,1.9858 -4.1932,1.9858 -1.4,0 -2.8908,0.9002 -3.3129,2.0004 -0.4221,1.1002 -2.1392,2.0004 -3.8157,2.0004 -1.6765,0 -3.4119,0.9478 -3.8564,2.1064 -0.6032,1.5719 -1.8244,1.8835 -4.8108,1.2275 -2.9864,-0.656 -4.2076,-0.3445 -4.8107,1.2274 -0.5803,1.5123 -2.6026,2.1065 -7.1694,2.1065 -4.0276,0 -6.97,0.7338 -8.021,2.0004 -1.0162,1.2246 -3.9399,2.0003 -7.5389,2.0003 -3.9956,0 -6.1247,-0.6408 -6.6465,-2.0003 z m 440.21068,-953.6368 c 28.5847,-11.3495 47.7699,-31.0551 56.3565,-57.8855 3.1579,-9.8672 3.6251,-13.4946 3.6067,-28.0052 -0.017,-13.79902 -0.5519,-18.27742 -3.1034,-26.00492 -13.036,-39.4811 -45.2707,-63.0165 -86.4362,-63.1094 -16.4866,-0.037 -25.1525,2.0301 -41.4438,9.8865 -26.3443,12.7044 -43.9428,38.0264 -48.4204,69.6703 -2.4797,17.52432 1.9712,37.97432 12.0636,55.42742 10.7068,18.5154 29.8336,33.7987 50.707,40.5175 12.4492,4.007 13.6574,4.1479 31.3351,3.6552 13.7269,-0.3825 17.3275,-0.9726 25.3349,-4.1519 z m 340.6869,-240.62721 c 0,-0.75597 -7.407,-16.20885 -16.4602,-34.33974 -32.8158,-65.72079 -98.8947,-198.84702 -109.4285,-220.46072 l -10.786,-22.13123 -14.0009,-3.012 c -20.7392,-4.46163 -66.1104,-12.40438 -79.6244,-13.93914 -3.091,-0.35105 -10.2914,-1.25118 -16.001,-2.00029 -70.3247,-9.22686 -180.9763,-9.25986 -247.72832,-0.0738 -5.13371,0.70646 -11.7341,1.56489 -14.6676,1.90763 -9.3453,1.09189 -15.7113,2.04601 -27.33491,4.0969 -24.2271,4.27468 -41.0252,7.39384 -49.3364,9.16104 -4.7669,1.01361 -10.76725,2.20665 -13.33405,2.65122 l -4.667,0.80824 -31.9245,64.33919 c -17.5584,35.38655 -48.3103,97.20723 -68.3374,137.37927 -20.0271,40.17204 -36.4128,73.92834 -36.4128,75.01401 0,1.73812 44.2047,1.97394 370.02198,1.97394 253.1364,0 370.022,-0.43419 370.022,-1.37451 z"
         id="path1"
         sodipodi:nodetypes="sscccccsssssssssscsssssssscsscssssssssssssssssssscsssssssssssssscccccccccccssccccsscccsssssssssssscccsssssssssssssssssssssssssssssssssssssssssssssssssscssssssssssssssssssssssssssssssssssssssssssssscccssssssssssssscssssssssssssssssssssssssssssssssssssssssssssssssssssssssssssssssssssssssssssssssssssssssssssscsssssssscssssss" /></g></g></svg>
